<?xml version="1.0" standalone="no"?>
<mlt LC_NUMERIC="C" version="7.1.0" title="Shotcut version 21.10.31" producer="main_bin">
  <profile description="HD 1080p 25 fps" width="1920" height="1080" progressive="1" sample_aspect_num="1" sample_aspect_den="1" display_aspect_num="16" display_aspect_den="9" frame_rate_num="60" frame_rate_den="1" colorspace="709"/>
  <producer id="tractor0" title="Shotcut version 21.10.31" in="00:00:00.000" out="00:51:51.833">
    <property name="length">00:51:51.850</property>
    <property name="eof">pause</property>
    <property name="resource">video_edit.mlt</property>
    <property name="mlt_service">xml</property>
    <property name="shotcut">1</property>
    <property name="shotcut:projectAudioChannels">2</property>
    <property name="shotcut:projectFolder">0</property>
    <property name="shotcut:scaleFactor">0.453444</property>
    <property name="xml">was here</property>
    <property name="seekable">1</property>
    <property name="shotcut:virtual">1</property>
    <property name="shotcut:hash">9b0b0793078a8503bbc8b2a05bde1f84</property>
  </producer>
  <producer id="producer0" in="00:00:00.000" out="03:59:59.983">
    <property name="length">04:00:00.000</property>
    <property name="eof">pause</property>
    <property name="resource">images/01-dany-and-army.jpg</property>
    <property name="ttl">1</property>
    <property name="aspect_ratio">1</property>
    <property name="progressive">1</property>
    <property name="seekable">1</property>
    <property name="mlt_service">qimage</property>
    <property name="creation_time">2021-12-02T16:41:00</property>
    <property name="shotcut:caption">01-dany-and-army.jpg</property>
    <property name="shotcut:hash">17ff045bab847a9f78fb1a6fe674af27</property>
    <property name="ignore_points">0</property>
    <property name="xml">was here</property>
  </producer>
  <producer id="producer1" in="00:00:00.000" out="03:59:59.983">
    <property name="length">04:00:00.000</property>
    <property name="eof">pause</property>
    <property name="resource">images/frame-5130680.svg</property>
    <property name="ttl">1</property>
    <property name="aspect_ratio">1</property>
    <property name="progressive">1</property>
    <property name="seekable">1</property>
    <property name="mlt_service">qimage</property>
    <property name="creation_time">2021-12-07T21:14:32</property>
    <property name="xml">was here</property>
    <property name="shotcut:hash">abbf6b4416c0dd9bdc12474f2da227b9</property>
  </producer>
  <producer id="producer2" in="00:00:00.000" out="03:59:59.983">
    <property name="length">04:00:00.000</property>
    <property name="eof">pause</property>
    <property name="resource">images/logo.png</property>
    <property name="ttl">1</property>
    <property name="aspect_ratio">1</property>
    <property name="progressive">1</property>
    <property name="seekable">1</property>
    <property name="mlt_service">qimage</property>
    <property name="creation_time">2020-05-28T14:07:50</property>
    <property name="xml">was here</property>
    <property name="shotcut:hash">5767969113bde37c518dbea4398f47b1</property>
  </producer>
  <producer id="producer3" in="00:00:00.000" out="03:59:59.983">
    <property name="length">04:00:00.000</property>
    <property name="eof">pause</property>
    <property name="resource">images/02-game-of-thrones-4180794_1920.jpg</property>
    <property name="ttl">1</property>
    <property name="aspect_ratio">1</property>
    <property name="progressive">1</property>
    <property name="seekable">1</property>
    <property name="mlt_service">qimage</property>
    <property name="creation_time">2021-12-08T11:30:16</property>
    <property name="xml">was here</property>
    <property name="shotcut:hash">3945dd79a74f80e662d677f6f80e2e02</property>
  </producer>
  <producer id="producer4" in="00:00:00.000" out="03:59:59.983">
    <property name="length">04:00:00.000</property>
    <property name="eof">pause</property>
    <property name="resource">images/03-dubrovnik-5120059_1920x1080.jpg</property>
    <property name="ttl">1</property>
    <property name="aspect_ratio">1</property>
    <property name="progressive">1</property>
    <property name="seekable">1</property>
    <property name="mlt_service">qimage</property>
    <property name="creation_time">2021-11-14T19:09:56</property>
    <property name="xml">was here</property>
    <property name="shotcut:hash">c6005d06af3a35ae7233dbeda99a0f3e</property>
  </producer>
  <producer id="producer5" in="00:00:00.000" out="03:59:59.983">
    <property name="length">04:00:00.000</property>
    <property name="eof">pause</property>
    <property name="resource">images/04-a-song-of-ice-and-fire-1177616-1920x1080.jpg</property>
    <property name="ttl">1</property>
    <property name="aspect_ratio">1</property>
    <property name="progressive">1</property>
    <property name="seekable">1</property>
    <property name="mlt_service">qimage</property>
    <property name="creation_time">2021-12-08T10:57:39</property>
    <property name="xml">was here</property>
    <property name="shotcut:hash">fa618dd874a4dfdcdaf870a51bbcffe0</property>
  </producer>
  <producer id="producer6" in="00:00:00.000" out="03:59:59.983">
    <property name="length">04:00:00.000</property>
    <property name="eof">pause</property>
    <property name="resource">images/05-house-1961642_1920x1080.jpg</property>
    <property name="ttl">1</property>
    <property name="aspect_ratio">1</property>
    <property name="progressive">1</property>
    <property name="seekable">1</property>
    <property name="mlt_service">qimage</property>
    <property name="creation_time">2021-11-14T19:07:16</property>
    <property name="xml">was here</property>
    <property name="shotcut:hash">4821475c047edf8512db9785644b6037</property>
  </producer>
  <producer id="producer7" in="00:00:00.000" out="03:59:59.983">
    <property name="length">04:00:00.000</property>
    <property name="eof">pause</property>
    <property name="resource">images/06-malta-1988027_1920x1080.jpg</property>
    <property name="ttl">1</property>
    <property name="aspect_ratio">1</property>
    <property name="progressive">1</property>
    <property name="seekable">1</property>
    <property name="mlt_service">qimage</property>
    <property name="creation_time">2021-11-14T19:09:02</property>
    <property name="xml">was here</property>
    <property name="shotcut:hash">57179577451f94a1a0ebf3fa015215bf</property>
  </producer>
  <producer id="producer8" in="00:00:00.000" out="03:59:59.983">
    <property name="length">04:00:00.000</property>
    <property name="eof">pause</property>
    <property name="resource">images/07-mdina-1961370_1920.jpg</property>
    <property name="ttl">1</property>
    <property name="aspect_ratio">1</property>
    <property name="progressive">1</property>
    <property name="seekable">1</property>
    <property name="mlt_service">qimage</property>
    <property name="creation_time">2021-12-08T11:34:42</property>
    <property name="xml">was here</property>
    <property name="shotcut:hash">80a72b71d68d5420031e130b69151047</property>
  </producer>
  <producer id="producer9" in="00:00:00.000" out="03:59:59.983">
    <property name="length">04:00:00.000</property>
    <property name="eof">pause</property>
    <property name="resource">images/08-seville-3699270_1920x1080.jpg</property>
    <property name="ttl">1</property>
    <property name="aspect_ratio">1</property>
    <property name="progressive">1</property>
    <property name="seekable">1</property>
    <property name="mlt_service">qimage</property>
    <property name="creation_time">2021-11-14T19:06:16</property>
    <property name="xml">was here</property>
    <property name="shotcut:hash">b6143e04e1d69ed34656ccaf033dcdc1</property>
  </producer>
  <producer id="producer10" in="00:00:00.000" out="03:59:59.983">
    <property name="length">04:00:00.000</property>
    <property name="eof">pause</property>
    <property name="resource">images/09-2560px-Game_of_Thrones_-_Dubrovnik_Rector's_Palace.jpg</property>
    <property name="ttl">1</property>
    <property name="aspect_ratio">1</property>
    <property name="progressive">1</property>
    <property name="seekable">1</property>
    <property name="mlt_service">qimage</property>
    <property name="creation_time">2021-12-08T12:13:40</property>
    <property name="xml">was here</property>
    <property name="shotcut:hash">2a0aa46498fd4fbd09ecaa9f4459c5ba</property>
  </producer>
  <producer id="producer11" in="00:00:00.000" out="03:59:59.983">
    <property name="length">04:00:00.000</property>
    <property name="eof">pause</property>
    <property name="resource">images/10-2560px-Game_of_Thrones_-_Dubrovnik_Fort_Lovrijenac.jpg</property>
    <property name="ttl">1</property>
    <property name="aspect_ratio">1</property>
    <property name="progressive">1</property>
    <property name="seekable">1</property>
    <property name="mlt_service">qimage</property>
    <property name="creation_time">2021-12-08T12:16:26</property>
    <property name="xml">was here</property>
    <property name="shotcut:hash">52a45ad856691537152a89a249dc53dd</property>
  </producer>
  <producer id="producer12" in="00:00:00.000" out="03:59:59.983">
    <property name="length">04:00:00.000</property>
    <property name="eof">pause</property>
    <property name="resource">images/andro_screenshot.png</property>
    <property name="ttl">1</property>
    <property name="aspect_ratio">1</property>
    <property name="progressive">1</property>
    <property name="seekable">1</property>
    <property name="mlt_service">qimage</property>
    <property name="creation_time">2021-12-08T13:02:48</property>
    <property name="xml">was here</property>
    <property name="shotcut:hash">a447d460eaf34a29685aebdcc409dde0</property>
  </producer>
  <producer id="producer13" in="00:00:00.000" out="03:59:59.983">
    <property name="length">04:00:00.000</property>
    <property name="eof">pause</property>
    <property name="resource">images/house-of-the-dragon-alicent-hightower-otto-hightower-1620227915298.jpg</property>
    <property name="ttl">1</property>
    <property name="aspect_ratio">1</property>
    <property name="progressive">1</property>
    <property name="seekable">1</property>
    <property name="mlt_service">qimage</property>
    <property name="creation_time">2021-12-08T15:11:54</property>
    <property name="xml">was here</property>
    <property name="shotcut:hash">ec8a3c2d570520db11badea9d79ff6ec</property>
  </producer>
  <producer id="producer14" in="00:00:00.000" out="03:59:59.983">
    <property name="length">04:00:00.000</property>
    <property name="eof">pause</property>
    <property name="resource">images/house-of-the-dragon-princess-rhaenyra-targaryen-prince-daemon-targaryen-1620227915300.jpg</property>
    <property name="ttl">1</property>
    <property name="aspect_ratio">1</property>
    <property name="progressive">1</property>
    <property name="seekable">1</property>
    <property name="mlt_service">qimage</property>
    <property name="creation_time">2021-12-08T15:12:47</property>
    <property name="xml">was here</property>
    <property name="shotcut:hash">f433b5ff18a0e76ca12bb8d6a453f1b1</property>
  </producer>
  <producer id="producer15" in="00:00:00.000" out="03:59:59.983">
    <property name="length">04:00:00.000</property>
    <property name="eof">pause</property>
    <property name="resource">images/house-of-the-dragon-the-sea-snake-1620227915299.jpg</property>
    <property name="ttl">1</property>
    <property name="aspect_ratio">1</property>
    <property name="progressive">1</property>
    <property name="seekable">1</property>
    <property name="mlt_service">qimage</property>
    <property name="creation_time">2021-12-08T15:13:54</property>
    <property name="xml">was here</property>
    <property name="shotcut:hash">b16b167fb103fa1bd195feaf0ccc35ca</property>
  </producer>
  <producer id="producer16" in="00:00:00.000" out="03:59:59.983">
    <property name="length">04:00:00.000</property>
    <property name="eof">pause</property>
    <property name="resource">images/sanderson.jpg</property>
    <property name="ttl">1</property>
    <property name="aspect_ratio">1</property>
    <property name="progressive">1</property>
    <property name="seekable">1</property>
    <property name="mlt_service">qimage</property>
    <property name="creation_time">2021-12-08T15:40:01</property>
    <property name="xml">was here</property>
    <property name="shotcut:hash">54caae7cf688a7107fec76884bcf505e</property>
  </producer>
  <producer id="producer17" in="00:00:00.000" out="03:59:59.983">
    <property name="length">04:00:00.000</property>
    <property name="eof">pause</property>
    <property name="resource">images/GettyImages-953506302.jpg</property>
    <property name="ttl">1</property>
    <property name="aspect_ratio">1</property>
    <property name="progressive">1</property>
    <property name="seekable">1</property>
    <property name="mlt_service">qimage</property>
    <property name="creation_time">2021-12-08T15:43:11</property>
    <property name="xml">was here</property>
    <property name="shotcut:hash">e9b4bed9beb4d0b94a3f423970a63062</property>
  </producer>
  <producer id="producer18" in="00:00:00.000" out="03:59:59.983">
    <property name="length">04:00:00.000</property>
    <property name="eof">pause</property>
    <property name="resource">images/Screenshot from 2021-12-08 12-44-24.png</property>
    <property name="ttl">1</property>
    <property name="aspect_ratio">1</property>
    <property name="progressive">1</property>
    <property name="seekable">1</property>
    <property name="mlt_service">qimage</property>
    <property name="creation_time">2021-12-08T12:44:28</property>
    <property name="xml">was here</property>
    <property name="shotcut:hash">a8c7b5ac5450738ddfb5050b7afe1692</property>
  </producer>
  <producer id="producer19" in="00:00:00.000" out="03:59:59.983">
    <property name="length">04:00:00.000</property>
    <property name="eof">pause</property>
    <property name="resource">images/Victory_Parade_1945.ogv.jpg</property>
    <property name="ttl">1</property>
    <property name="aspect_ratio">1</property>
    <property name="progressive">1</property>
    <property name="seekable">1</property>
    <property name="mlt_service">qimage</property>
    <property name="creation_time">2021-12-08T15:49:47</property>
    <property name="xml">was here</property>
    <property name="shotcut:hash">f3ffc3112a02827802f2974e5325f7a4</property>
  </producer>
  <producer id="producer20" in="00:00:00.000" out="03:59:59.983">
    <property name="length">04:00:00.000</property>
    <property name="eof">pause</property>
    <property name="resource">images/westeros_map.jpg</property>
    <property name="ttl">1</property>
    <property name="aspect_ratio">1</property>
    <property name="progressive">1</property>
    <property name="seekable">1</property>
    <property name="mlt_service">qimage</property>
    <property name="creation_time">2021-12-08T15:54:01</property>
    <property name="xml">was here</property>
    <property name="shotcut:hash">b9e8eaa9d33b2403c1d8a928f732ca7c</property>
  </producer>
  <producer id="producer21" in="00:00:00.000" out="03:59:59.983">
    <property name="length">04:00:00.000</property>
    <property name="eof">pause</property>
    <property name="resource">images/640px-Hegel_by_BÃ¼rkner.jpg</property>
    <property name="ttl">1</property>
    <property name="aspect_ratio">1</property>
    <property name="progressive">1</property>
    <property name="seekable">1</property>
    <property name="mlt_service">qimage</property>
    <property name="creation_time">2021-12-08T16:00:23</property>
    <property name="xml">was here</property>
    <property name="shotcut:hash">f1fe03f62c56c91440084321a012984c</property>
  </producer>
  <producer id="producer22" in="00:00:00.000" out="03:59:59.983">
    <property name="length">04:00:00.000</property>
    <property name="eof">pause</property>
    <property name="resource">images/640px-Karl_Marx_001.jpg</property>
    <property name="ttl">1</property>
    <property name="aspect_ratio">1</property>
    <property name="progressive">1</property>
    <property name="seekable">1</property>
    <property name="mlt_service">qimage</property>
    <property name="creation_time">2021-12-08T16:00:52</property>
    <property name="xml">was here</property>
    <property name="shotcut:hash">016d29b89fbd12321e90d2527a417135</property>
  </producer>
  <producer id="producer23" in="00:00:00.000" out="03:59:59.983">
    <property name="length">04:00:00.000</property>
    <property name="eof">pause</property>
    <property name="resource">images/Screenshot from 2021-12-08 16-12-50.png</property>
    <property name="ttl">1</property>
    <property name="aspect_ratio">1</property>
    <property name="progressive">1</property>
    <property name="seekable">1</property>
    <property name="mlt_service">qimage</property>
    <property name="creation_time">2021-12-08T16:12:52</property>
    <property name="xml">was here</property>
    <property name="shotcut:hash">82dedd9109809ece086b95cc1aee91d8</property>
  </producer>
  <producer id="producer24" in="00:00:00.000" out="03:59:59.983">
    <property name="length">04:00:00.000</property>
    <property name="eof">pause</property>
    <property name="resource">images/220px-Jacques-Louis_David_-_The_Emperor_Napoleon_in_His_Study_at_the_Tuileries_-_Google_Art_Project.jpg</property>
    <property name="ttl">1</property>
    <property name="aspect_ratio">1</property>
    <property name="progressive">1</property>
    <property name="seekable">1</property>
    <property name="mlt_service">qimage</property>
    <property name="creation_time">2021-12-08T16:21:24</property>
    <property name="xml">was here</property>
    <property name="shotcut:hash">d6a4dde9ca50e0abc402d0263299c016</property>
  </producer>
  <producer id="producer25" in="00:00:00.000" out="03:59:59.983">
    <property name="length">04:00:00.000</property>
    <property name="eof">pause</property>
    <property name="resource">images/59b2a83c15e9f937bd6afb57.jpg</property>
    <property name="ttl">1</property>
    <property name="aspect_ratio">1</property>
    <property name="progressive">1</property>
    <property name="seekable">1</property>
    <property name="mlt_service">qimage</property>
    <property name="creation_time">2021-12-08T16:22:54</property>
    <property name="xml">was here</property>
    <property name="shotcut:hash">7d875ebc130cfd5fda1a25975a33201f</property>
  </producer>
  <producer id="producer26" in="00:00:00.000" out="03:59:59.983">
    <property name="length">04:00:00.000</property>
    <property name="eof">pause</property>
    <property name="resource">images/Toussaint_Louverture_-_Girardin.jpg</property>
    <property name="ttl">1</property>
    <property name="aspect_ratio">1</property>
    <property name="progressive">1</property>
    <property name="seekable">1</property>
    <property name="mlt_service">qimage</property>
    <property name="creation_time">2021-12-08T16:30:30</property>
    <property name="xml">was here</property>
    <property name="shotcut:hash">23b4e1752010c8474742b0b55d7708ee</property>
  </producer>
  <producer id="producer27" in="00:00:00.000" out="03:59:59.983">
    <property name="length">04:00:00.000</property>
    <property name="eof">pause</property>
    <property name="resource">images/what_you_do.jpg</property>
    <property name="ttl">1</property>
    <property name="aspect_ratio">1</property>
    <property name="progressive">1</property>
    <property name="seekable">1</property>
    <property name="mlt_service">qimage</property>
    <property name="creation_time">2021-12-08T16:28:28</property>
    <property name="xml">was here</property>
    <property name="shotcut:hash">338b6b638b0ca54f7ac06db4bb4ffad0</property>
  </producer>
  <producer id="producer28" in="00:00:00.000" out="03:59:59.983">
    <property name="length">04:00:00.000</property>
    <property name="eof">pause</property>
    <property name="resource">images/spartakos.jpg</property>
    <property name="ttl">1</property>
    <property name="aspect_ratio">1</property>
    <property name="progressive">1</property>
    <property name="seekable">1</property>
    <property name="mlt_service">qimage</property>
    <property name="creation_time">2021-12-08T16:40:04</property>
    <property name="xml">was here</property>
    <property name="shotcut:hash">3b5863767d3ddf9d611ef1b815e727fb</property>
  </producer>
  <producer id="producer29" in="00:00:00.000" out="03:59:59.983">
    <property name="length">04:00:00.000</property>
    <property name="eof">pause</property>
    <property name="resource">images/1499182832-meereen.jpg</property>
    <property name="ttl">1</property>
    <property name="aspect_ratio">1</property>
    <property name="progressive">1</property>
    <property name="seekable">1</property>
    <property name="mlt_service">qimage</property>
    <property name="creation_time">2021-12-08T17:00:22</property>
    <property name="xml">was here</property>
    <property name="shotcut:hash">1b0a7c59e9d375284acd7d71cc086e2f</property>
  </producer>
  <producer id="producer30" in="00:00:00.000" out="03:59:59.983">
    <property name="length">04:00:00.000</property>
    <property name="eof">pause</property>
    <property name="resource">images/1499182635-meereen-2.jpg</property>
    <property name="ttl">1</property>
    <property name="aspect_ratio">1</property>
    <property name="progressive">1</property>
    <property name="seekable">1</property>
    <property name="mlt_service">qimage</property>
    <property name="creation_time">2021-12-08T17:00:30</property>
    <property name="xml">was here</property>
    <property name="shotcut:hash">ab2b8e2420e54df3c0c2f70c3d3ef5b9</property>
  </producer>
  <producer id="producer31" in="00:00:00.000" out="03:59:59.983">
    <property name="length">04:00:00.000</property>
    <property name="eof">pause</property>
    <property name="resource">images/zizek-and-varoufakis-in-coversation-about-the-future-of-europe-november-16-2015-royal-festival-hall-london.jpg</property>
    <property name="ttl">1</property>
    <property name="aspect_ratio">1</property>
    <property name="progressive">1</property>
    <property name="seekable">1</property>
    <property name="mlt_service">qimage</property>
    <property name="creation_time">2021-12-08T17:05:23</property>
    <property name="xml">was here</property>
    <property name="shotcut:hash">098ee04df4c3790593f91dd82e96b9e4</property>
  </producer>
  <producer id="producer32" in="00:00:00.000" out="03:59:59.983">
    <property name="length">04:00:00.000</property>
    <property name="eof">pause</property>
    <property name="resource">images/818KSt256KL._AC_SL1500_.jpg</property>
    <property name="ttl">1</property>
    <property name="aspect_ratio">1</property>
    <property name="progressive">1</property>
    <property name="seekable">1</property>
    <property name="mlt_service">qimage</property>
    <property name="creation_time">2021-12-08T16:43:25</property>
    <property name="xml">was here</property>
    <property name="shotcut:hash">4bc71eff55d057dc67be3c5ab9781a15</property>
  </producer>
  <producer id="producer33" in="00:00:00.000" out="03:59:59.983">
    <property name="length">04:00:00.000</property>
    <property name="eof">pause</property>
    <property name="resource">images/women_of_got.png</property>
    <property name="ttl">1</property>
    <property name="aspect_ratio">1</property>
    <property name="progressive">1</property>
    <property name="seekable">1</property>
    <property name="mlt_service">qimage</property>
    <property name="creation_time">2021-12-09T10:22:56</property>
    <property name="xml">was here</property>
    <property name="shotcut:hash">4d896ac8a01feed819db0a619fb39f25</property>
  </producer>
  <producer id="producer34" in="00:00:00.000" out="03:59:59.983">
    <property name="length">04:00:00.000</property>
    <property name="eof">pause</property>
    <property name="resource">images/bretanos_comment.jpeg</property>
    <property name="ttl">1</property>
    <property name="aspect_ratio">1</property>
    <property name="progressive">1</property>
    <property name="seekable">1</property>
    <property name="mlt_service">qimage</property>
    <property name="creation_time">2021-12-09T10:33:59</property>
    <property name="xml">was here</property>
    <property name="shotcut:hash">7b88132177b6db003d509bb53c56b2ee</property>
  </producer>
  <playlist id="main_bin">
    <property name="xml_retain">1</property>
    <entry producer="tractor0" in="00:00:00.000" out="00:51:51.833"/>
    <entry producer="producer0" in="00:00:00.000" out="00:00:03.983"/>
    <entry producer="producer1" in="00:00:00.000" out="00:00:03.983"/>
    <entry producer="producer2" in="00:00:00.000" out="00:00:03.983"/>
    <entry producer="producer3" in="00:00:00.000" out="00:00:03.983"/>
    <entry producer="producer4" in="00:00:00.000" out="00:00:03.983"/>
    <entry producer="producer5" in="00:00:00.000" out="00:00:03.983"/>
    <entry producer="producer6" in="00:00:00.000" out="00:00:03.983"/>
    <entry producer="producer7" in="00:00:00.000" out="00:00:03.983"/>
    <entry producer="producer8" in="00:00:00.000" out="00:00:03.983"/>
    <entry producer="producer9" in="00:00:00.000" out="00:00:03.983"/>
    <entry producer="producer10" in="00:00:00.000" out="00:00:03.983"/>
    <entry producer="producer11" in="00:00:00.000" out="00:00:03.983"/>
    <entry producer="producer12" in="00:00:00.000" out="00:00:03.983"/>
    <entry producer="producer13" in="00:00:00.000" out="00:00:03.983"/>
    <entry producer="producer14" in="00:00:00.000" out="00:00:03.983"/>
    <entry producer="producer15" in="00:00:00.000" out="00:00:03.983"/>
    <entry producer="producer16" in="00:00:00.000" out="00:00:03.983"/>
    <entry producer="producer17" in="00:00:00.000" out="00:00:03.983"/>
    <entry producer="producer18" in="00:00:00.000" out="00:00:03.983"/>
    <entry producer="producer19" in="00:00:00.000" out="00:00:03.983"/>
    <entry producer="producer20" in="00:00:00.000" out="00:00:03.983"/>
    <entry producer="producer21" in="00:00:00.000" out="00:00:03.983"/>
    <entry producer="producer22" in="00:00:00.000" out="00:00:03.983"/>
    <entry producer="producer23" in="00:00:00.000" out="00:00:03.983"/>
    <entry producer="producer24" in="00:00:00.000" out="00:00:03.983"/>
    <entry producer="producer25" in="00:00:00.000" out="00:00:03.983"/>
    <entry producer="producer26" in="00:00:00.000" out="00:00:03.983"/>
    <entry producer="producer27" in="00:00:00.000" out="00:00:03.983"/>
    <entry producer="producer28" in="00:00:00.000" out="00:00:03.983"/>
    <entry producer="producer29" in="00:00:00.000" out="00:00:03.983"/>
    <entry producer="producer30" in="00:00:00.000" out="00:00:03.983"/>
    <entry producer="producer31" in="00:00:00.000" out="00:00:03.983"/>
    <entry producer="producer32" in="00:00:00.000" out="00:00:03.983"/>
    <entry producer="producer33" in="00:00:00.000" out="00:00:03.983"/>
    <entry producer="producer34" in="00:00:00.000" out="00:00:03.983"/>
  </playlist>
  <producer id="black" in="00:00:00.000" out="00:52:32.400">
    <property name="length">00:52:32.417</property>
    <property name="eof">pause</property>
    <property name="resource">0</property>
    <property name="aspect_ratio">1</property>
    <property name="mlt_service">color</property>
    <property name="mlt_image_format">rgba</property>
    <property name="set.test_audio">0</property>
  </producer>
  <playlist id="background">
    <entry producer="black" in="00:00:00.000" out="00:52:32.400"/>
  </playlist>
  <producer id="producer35" in="00:00:00.000" out="03:59:59.983">
    <property name="length">04:00:00.000</property>
    <property name="eof">pause</property>
    <property name="resource">images/01-dany-and-army.jpg</property>
    <property name="ttl">1</property>
    <property name="aspect_ratio">1</property>
    <property name="progressive">1</property>
    <property name="seekable">1</property>
    <property name="mlt_service">qimage</property>
    <property name="creation_time">2021-12-02T16:41:00</property>
    <property name="shotcut:caption">01-dany-and-army.jpg</property>
    <property name="shotcut:hash">17ff045bab847a9f78fb1a6fe674af27</property>
    <property name="ignore_points">0</property>
    <property name="xml">was here</property>
  </producer>
  <producer id="producer36" in="00:00:00.000" out="03:59:59.983">
    <property name="length">04:00:00.000</property>
    <property name="eof">pause</property>
    <property name="resource">images/02-game-of-thrones-4180794_1920.jpg</property>
    <property name="ttl">1</property>
    <property name="aspect_ratio">1</property>
    <property name="progressive">1</property>
    <property name="seekable">1</property>
    <property name="mlt_service">qimage</property>
    <property name="creation_time">2021-12-08T11:30:16</property>
    <property name="xml">was here</property>
    <property name="shotcut:hash">3945dd79a74f80e662d677f6f80e2e02</property>
    <property name="shotcut:caption">02-game-of-thrones-4180794_1920.jpg</property>
  </producer>
  <tractor id="tractor1" in="00:00:00.000" out="00:00:18.300">
    <property name="shotcut:transition">lumaMix</property>
    <track producer="producer35" in="00:05:10.533" out="00:05:28.833"/>
    <track producer="producer36" in="00:00:00.000" out="00:00:18.300"/>
    <transition id="transition0" out="00:00:18.300">
      <property name="a_track">0</property>
      <property name="b_track">1</property>
      <property name="factory">loader</property>
      <property name="mlt_service">luma</property>
      <property name="alpha_over">1</property>
    </transition>
    <transition id="transition1" out="00:00:18.300">
      <property name="a_track">0</property>
      <property name="b_track">1</property>
      <property name="mlt_service">mix</property>
      <property name="start">-1</property>
      <property name="accepts_blanks">1</property>
    </transition>
  </tractor>
  <producer id="producer37" in="00:00:00.000" out="03:59:59.983">
    <property name="length">04:00:00.000</property>
    <property name="eof">pause</property>
    <property name="resource">images/03-dubrovnik-5120059_1920x1080.jpg</property>
    <property name="ttl">1</property>
    <property name="aspect_ratio">1</property>
    <property name="progressive">1</property>
    <property name="seekable">1</property>
    <property name="mlt_service">qimage</property>
    <property name="creation_time">2021-11-14T19:09:56</property>
    <property name="shotcut:hash">c6005d06af3a35ae7233dbeda99a0f3e</property>
    <property name="shotcut:caption">03-dubrovnik-5120059_1920x1080.jpg</property>
  </producer>
  <tractor id="tractor2" in="00:00:00.000" out="00:00:18.300">
    <property name="shotcut:transition">lumaMix</property>
    <track producer="producer36" in="00:05:24.467" out="00:05:42.767"/>
    <track producer="producer37" in="00:00:00.000" out="00:00:18.300"/>
    <transition id="transition2" out="00:00:18.300">
      <property name="a_track">0</property>
      <property name="b_track">1</property>
      <property name="factory">loader</property>
      <property name="mlt_service">luma</property>
      <property name="alpha_over">1</property>
    </transition>
    <transition id="transition3" out="00:00:18.300">
      <property name="a_track">0</property>
      <property name="b_track">1</property>
      <property name="mlt_service">mix</property>
      <property name="start">-1</property>
      <property name="accepts_blanks">1</property>
    </transition>
  </tractor>
  <producer id="producer38" in="00:00:00.000" out="03:59:59.983">
    <property name="length">04:00:00.000</property>
    <property name="eof">pause</property>
    <property name="resource">images/04-a-song-of-ice-and-fire-1177616-1920x1080.jpg</property>
    <property name="ttl">1</property>
    <property name="aspect_ratio">1</property>
    <property name="progressive">1</property>
    <property name="seekable">1</property>
    <property name="mlt_service">qimage</property>
    <property name="creation_time">2021-12-08T10:57:39</property>
    <property name="shotcut:hash">fa618dd874a4dfdcdaf870a51bbcffe0</property>
    <property name="shotcut:caption">04-a-song-of-ice-and-fire-1177616-1920x1080.jpg</property>
  </producer>
  <tractor id="tractor3" in="00:00:00.000" out="00:00:15.650">
    <property name="shotcut:transition">lumaMix</property>
    <track producer="producer37" in="00:05:30.000" out="00:05:45.650"/>
    <track producer="producer38" in="00:00:00.000" out="00:00:15.650"/>
    <transition id="transition4" out="00:00:15.650">
      <property name="a_track">0</property>
      <property name="b_track">1</property>
      <property name="factory">loader</property>
      <property name="mlt_service">luma</property>
      <property name="alpha_over">1</property>
    </transition>
    <transition id="transition5" out="00:00:15.650">
      <property name="a_track">0</property>
      <property name="b_track">1</property>
      <property name="mlt_service">mix</property>
      <property name="start">-1</property>
      <property name="accepts_blanks">1</property>
    </transition>
  </tractor>
  <producer id="producer39" in="00:00:00.000" out="03:59:59.983">
    <property name="length">04:00:00.000</property>
    <property name="eof">pause</property>
    <property name="resource">images/05-house-1961642_1920x1080.jpg</property>
    <property name="ttl">1</property>
    <property name="aspect_ratio">1</property>
    <property name="progressive">1</property>
    <property name="seekable">1</property>
    <property name="mlt_service">qimage</property>
    <property name="creation_time">2021-11-14T19:07:16</property>
    <property name="xml">was here</property>
    <property name="shotcut:hash">4821475c047edf8512db9785644b6037</property>
    <property name="shotcut:caption">05-house-1961642_1920x1080.jpg</property>
  </producer>
  <tractor id="tractor4" in="00:00:00.000" out="00:00:15.650">
    <property name="shotcut:transition">lumaMix</property>
    <track producer="producer38" in="00:05:05.000" out="00:05:20.650"/>
    <track producer="producer39" in="00:00:00.000" out="00:00:15.650"/>
    <transition id="transition6" out="00:00:15.650">
      <property name="a_track">0</property>
      <property name="b_track">1</property>
      <property name="factory">loader</property>
      <property name="mlt_service">luma</property>
      <property name="alpha_over">1</property>
    </transition>
    <transition id="transition7" out="00:00:15.650">
      <property name="a_track">0</property>
      <property name="b_track">1</property>
      <property name="mlt_service">mix</property>
      <property name="start">-1</property>
      <property name="accepts_blanks">1</property>
    </transition>
  </tractor>
  <producer id="producer40" in="00:00:00.000" out="03:59:59.983">
    <property name="length">04:00:00.000</property>
    <property name="eof">pause</property>
    <property name="resource">images/06-malta-1988027_1920x1080.jpg</property>
    <property name="ttl">1</property>
    <property name="aspect_ratio">1</property>
    <property name="progressive">1</property>
    <property name="seekable">1</property>
    <property name="mlt_service">qimage</property>
    <property name="creation_time">2021-11-14T19:09:02</property>
    <property name="xml">was here</property>
    <property name="shotcut:hash">57179577451f94a1a0ebf3fa015215bf</property>
    <property name="shotcut:caption">06-malta-1988027_1920x1080.jpg</property>
  </producer>
  <tractor id="tractor5" in="00:00:00.000" out="00:00:20.083">
    <property name="shotcut:transition">lumaMix</property>
    <track producer="producer39" in="00:05:32.333" out="00:05:52.417"/>
    <track producer="producer40" in="00:00:21.567" out="00:00:41.650"/>
    <transition id="transition8" out="00:00:20.083">
      <property name="a_track">0</property>
      <property name="b_track">1</property>
      <property name="factory">loader</property>
      <property name="mlt_service">luma</property>
      <property name="alpha_over">1</property>
    </transition>
    <transition id="transition9" out="00:00:20.083">
      <property name="a_track">0</property>
      <property name="b_track">1</property>
      <property name="mlt_service">mix</property>
      <property name="start">-1</property>
      <property name="accepts_blanks">1</property>
    </transition>
  </tractor>
  <producer id="producer41" in="00:00:00.000" out="03:59:59.983">
    <property name="length">04:00:00.000</property>
    <property name="eof">pause</property>
    <property name="resource">images/07-mdina-1961370_1920.jpg</property>
    <property name="ttl">1</property>
    <property name="aspect_ratio">1</property>
    <property name="progressive">1</property>
    <property name="seekable">1</property>
    <property name="mlt_service">qimage</property>
    <property name="creation_time">2021-12-08T11:34:42</property>
    <property name="xml">was here</property>
    <property name="shotcut:hash">80a72b71d68d5420031e130b69151047</property>
    <property name="shotcut:caption">07-mdina-1961370_1920.jpg</property>
  </producer>
  <tractor id="tractor6" in="00:00:00.000" out="00:00:17.317">
    <property name="shotcut:transition">lumaMix</property>
    <track producer="producer40" in="00:05:51.667" out="00:06:08.983"/>
    <track producer="producer41" in="00:00:00.000" out="00:00:17.317"/>
    <transition id="transition10" out="00:00:17.317">
      <property name="a_track">0</property>
      <property name="b_track">1</property>
      <property name="factory">loader</property>
      <property name="mlt_service">luma</property>
      <property name="alpha_over">1</property>
    </transition>
    <transition id="transition11" out="00:00:17.317">
      <property name="a_track">0</property>
      <property name="b_track">1</property>
      <property name="mlt_service">mix</property>
      <property name="start">-1</property>
      <property name="accepts_blanks">1</property>
    </transition>
  </tractor>
  <producer id="producer42" in="00:00:00.000" out="03:59:59.983">
    <property name="length">04:00:00.000</property>
    <property name="eof">pause</property>
    <property name="resource">images/08-seville-3699270_1920x1080.jpg</property>
    <property name="ttl">1</property>
    <property name="aspect_ratio">1</property>
    <property name="progressive">1</property>
    <property name="seekable">1</property>
    <property name="mlt_service">qimage</property>
    <property name="creation_time">2021-11-14T19:06:16</property>
    <property name="xml">was here</property>
    <property name="shotcut:hash">b6143e04e1d69ed34656ccaf033dcdc1</property>
    <property name="shotcut:caption">08-seville-3699270_1920x1080.jpg</property>
  </producer>
  <tractor id="tractor7" in="00:00:00.000" out="00:00:15.650">
    <property name="shotcut:transition">lumaMix</property>
    <track producer="producer41" in="00:05:15.000" out="00:05:30.650"/>
    <track producer="producer42" in="00:00:00.000" out="00:00:15.650"/>
    <transition id="transition12" out="00:00:15.650">
      <property name="a_track">0</property>
      <property name="b_track">1</property>
      <property name="factory">loader</property>
      <property name="mlt_service">luma</property>
      <property name="alpha_over">1</property>
    </transition>
    <transition id="transition13" out="00:00:15.650">
      <property name="a_track">0</property>
      <property name="b_track">1</property>
      <property name="mlt_service">mix</property>
      <property name="start">-1</property>
      <property name="accepts_blanks">1</property>
    </transition>
  </tractor>
  <producer id="producer43" in="00:00:00.000" out="03:59:59.983">
    <property name="length">04:00:00.000</property>
    <property name="eof">pause</property>
    <property name="resource">images/09-2560px-Game_of_Thrones_-_Dubrovnik_Rector's_Palace.jpg</property>
    <property name="ttl">1</property>
    <property name="aspect_ratio">1</property>
    <property name="progressive">1</property>
    <property name="seekable">1</property>
    <property name="mlt_service">qimage</property>
    <property name="creation_time">2021-12-08T12:13:40</property>
    <property name="xml">was here</property>
    <property name="shotcut:hash">2a0aa46498fd4fbd09ecaa9f4459c5ba</property>
    <property name="shotcut:caption">09-2560px-Game_of_Thrones_-_Dubrovnik_Rector's_Palace.jpg</property>
  </producer>
  <tractor id="tractor8" in="00:00:00.000" out="00:00:19.517">
    <property name="shotcut:transition">lumaMix</property>
    <track producer="producer42" in="00:05:14.467" out="00:05:33.983"/>
    <track producer="producer43" in="00:00:00.000" out="00:00:19.517"/>
    <transition id="transition14" out="00:00:19.517">
      <property name="a_track">0</property>
      <property name="b_track">1</property>
      <property name="factory">loader</property>
      <property name="mlt_service">luma</property>
      <property name="alpha_over">1</property>
    </transition>
    <transition id="transition15" out="00:00:19.517">
      <property name="a_track">0</property>
      <property name="b_track">1</property>
      <property name="mlt_service">mix</property>
      <property name="start">-1</property>
      <property name="accepts_blanks">1</property>
    </transition>
  </tractor>
  <producer id="producer44" in="00:00:00.000" out="03:59:59.983">
    <property name="length">04:00:00.000</property>
    <property name="eof">pause</property>
    <property name="resource">images/10-2560px-Game_of_Thrones_-_Dubrovnik_Fort_Lovrijenac.jpg</property>
    <property name="ttl">1</property>
    <property name="aspect_ratio">1</property>
    <property name="progressive">1</property>
    <property name="seekable">1</property>
    <property name="mlt_service">qimage</property>
    <property name="creation_time">2021-12-08T12:16:26</property>
    <property name="xml">was here</property>
    <property name="shotcut:hash">52a45ad856691537152a89a249dc53dd</property>
    <property name="shotcut:caption">10-2560px-Game_of_Thrones_-_Dubrovnik_Fort_Lovrijenac.jpg</property>
  </producer>
  <tractor id="tractor9" in="00:00:00.000" out="00:00:17.317">
    <property name="shotcut:transition">lumaMix</property>
    <track producer="producer43" in="00:05:11.667" out="00:05:28.983"/>
    <track producer="producer44" in="00:00:00.000" out="00:00:17.317"/>
    <transition id="transition16" out="00:00:17.317">
      <property name="a_track">0</property>
      <property name="b_track">1</property>
      <property name="factory">loader</property>
      <property name="mlt_service">luma</property>
      <property name="alpha_over">1</property>
    </transition>
    <transition id="transition17" out="00:00:17.317">
      <property name="a_track">0</property>
      <property name="b_track">1</property>
      <property name="mlt_service">mix</property>
      <property name="start">-1</property>
      <property name="accepts_blanks">1</property>
    </transition>
  </tractor>
  <playlist id="playlist0">
    <property name="shotcut:video">1</property>
    <property name="shotcut:name">V1</property>
    <property name="shotcut:lock">1</property>
    <entry producer="producer35" in="00:00:00.000" out="00:05:10.517"/>
    <entry producer="tractor1" in="00:00:00.000" out="00:00:18.300"/>
    <entry producer="producer36" in="00:00:18.317" out="00:05:24.450"/>
    <entry producer="tractor2" in="00:00:00.000" out="00:00:18.300"/>
    <entry producer="producer37" in="00:00:18.317" out="00:05:29.983"/>
    <entry producer="tractor3" in="00:00:00.000" out="00:00:15.650"/>
    <entry producer="producer38" in="00:00:15.667" out="00:05:04.983"/>
    <entry producer="tractor4" in="00:00:00.000" out="00:00:15.650"/>
    <entry producer="producer39" in="00:00:15.667" out="00:05:32.317"/>
    <entry producer="tractor5" in="00:00:00.000" out="00:00:20.083"/>
    <entry producer="producer40" in="00:00:41.667" out="00:05:51.650"/>
    <entry producer="tractor6" in="00:00:00.000" out="00:00:17.317"/>
    <entry producer="producer41" in="00:00:17.333" out="00:05:14.983"/>
    <entry producer="tractor7" in="00:00:00.000" out="00:00:15.650"/>
    <entry producer="producer42" in="00:00:15.667" out="00:05:14.450"/>
    <entry producer="tractor8" in="00:00:00.000" out="00:00:19.517"/>
    <entry producer="producer43" in="00:00:19.533" out="00:05:11.650"/>
    <entry producer="tractor9" in="00:00:00.000" out="00:00:17.317"/>
    <entry producer="producer44" in="00:00:17.333" out="00:04:38.783"/>
  </playlist>
  <producer id="producer45" title="Shotcut version 21.10.31" in="00:00:00.000" out="00:51:51.833">
    <property name="length">00:51:51.850</property>
    <property name="eof">pause</property>
    <property name="resource">video_edit.mlt</property>
    <property name="mlt_service">xml</property>
    <property name="shotcut">1</property>
    <property name="shotcut:projectAudioChannels">2</property>
    <property name="shotcut:projectFolder">0</property>
    <property name="shotcut:scaleFactor">0.453444</property>
    <property name="xml">was here</property>
    <property name="seekable">1</property>
    <property name="shotcut:virtual">1</property>
    <property name="shotcut:hash">9b0b0793078a8503bbc8b2a05bde1f84</property>
    <filter id="filter0" out="00:51:51.833">
      <property name="rect">0 271 960 538 1</property>
      <property name="circle">0</property>
      <property name="color">#00000000</property>
      <property name="radius">0</property>
      <property name="mlt_service">qtcrop</property>
      <property name="shotcut:filter">cropRectangle</property>
      <property name="disable">0</property>
    </filter>
    <filter id="filter1" out="00:51:51.833">
      <property name="background">color:#00000000</property>
      <property name="mlt_service">affine</property>
      <property name="shotcut:filter">affineSizePosition</property>
      <property name="transition.fill">1</property>
      <property name="transition.distort">0</property>
      <property name="transition.rect">88 -91 1632 918 1</property>
      <property name="transition.valign">middle</property>
      <property name="transition.halign">center</property>
      <property name="shotcut:animIn">00:00:00.000</property>
      <property name="shotcut:animOut">00:00:00.000</property>
      <property name="transition.threads">0</property>
    </filter>
  </producer>
  <playlist id="playlist1">
    <property name="shotcut:video">1</property>
    <property name="shotcut:name">Dimitry-video</property>
    <property name="shotcut:lock">1</property>
    <blank length="00:00:10.050"/>
    <entry producer="producer45" in="00:00:00.000" out="00:51:51.833"/>
  </playlist>
  <producer id="producer46" title="Shotcut version 21.10.31" in="00:00:00.000" out="00:51:51.833">
    <property name="length">00:51:51.850</property>
    <property name="eof">pause</property>
    <property name="resource">video_edit.mlt</property>
    <property name="mlt_service">xml</property>
    <property name="shotcut">1</property>
    <property name="shotcut:projectAudioChannels">2</property>
    <property name="shotcut:projectFolder">0</property>
    <property name="shotcut:scaleFactor">0.453444</property>
    <property name="xml">was here</property>
    <property name="seekable">1</property>
    <property name="shotcut:virtual">1</property>
    <property name="shotcut:hash">9b0b0793078a8503bbc8b2a05bde1f84</property>
    <filter id="filter2" out="00:51:51.833">
      <property name="rect">960 271 960 538 1</property>
      <property name="circle">0</property>
      <property name="color">#00000000</property>
      <property name="radius">0</property>
      <property name="mlt_service">qtcrop</property>
      <property name="shotcut:filter">cropRectangle</property>
      <property name="disable">0</property>
    </filter>
    <filter id="filter3" out="00:51:51.833">
      <property name="background">color:#00000000</property>
      <property name="mlt_service">affine</property>
      <property name="shotcut:filter">affineSizePosition</property>
      <property name="transition.fill">1</property>
      <property name="transition.distort">0</property>
      <property name="transition.rect">198 -91 1632 918 1</property>
      <property name="transition.valign">middle</property>
      <property name="transition.halign">center</property>
      <property name="shotcut:animIn">00:00:00.000</property>
      <property name="shotcut:animOut">00:00:00.000</property>
      <property name="transition.threads">0</property>
    </filter>
  </producer>
  <playlist id="playlist2">
    <property name="shotcut:video">1</property>
    <property name="shotcut:name">Sotirios-video</property>
    <property name="shotcut:lock">1</property>
    <blank length="00:00:10.050"/>
    <entry producer="producer46" in="00:00:00.000" out="00:51:51.833"/>
  </playlist>
  <playlist id="playlist3">
    <property name="shotcut:video">1</property>
    <property name="shotcut:name">title</property>
    <blank length="00:00:00.017"/>
  </playlist>
  <producer id="producer47" in="00:00:00.000" out="03:59:59.983">
    <property name="length">04:00:00.000</property>
    <property name="eof">pause</property>
    <property name="resource">images/frame-5130680.svg</property>
    <property name="ttl">1</property>
    <property name="aspect_ratio">1</property>
    <property name="progressive">1</property>
    <property name="seekable">1</property>
    <property name="mlt_service">qimage</property>
    <property name="creation_time">2021-12-07T21:14:32</property>
    <property name="xml">was here</property>
    <property name="shotcut:hash">abbf6b4416c0dd9bdc12474f2da227b9</property>
    <property name="shotcut:caption">frame-5130680.svg</property>
    <filter id="filter4" out="00:51:52.233">
      <property name="background">color:#00000000</property>
      <property name="mlt_service">affine</property>
      <property name="shotcut:filter">affineSizePosition</property>
      <property name="transition.fill">1</property>
      <property name="transition.distort">0</property>
      <property name="transition.rect">56 98 877 541.986 1</property>
      <property name="transition.valign">middle</property>
      <property name="transition.halign">center</property>
      <property name="shotcut:animIn">00:00:00.000</property>
      <property name="shotcut:animOut">00:00:00.000</property>
      <property name="transition.threads">0</property>
    </filter>
  </producer>
  <playlist id="playlist4">
    <property name="shotcut:video">1</property>
    <property name="shotcut:name">Frame-Dimitry</property>
    <property name="shotcut:lock">1</property>
    <blank length="00:00:10.050"/>
    <entry producer="producer47" in="00:00:00.000" out="00:51:52.233"/>
  </playlist>
  <producer id="producer48" in="00:00:00.000" out="03:59:59.983">
    <property name="length">04:00:00.000</property>
    <property name="eof">pause</property>
    <property name="resource">images/frame-5130680.svg</property>
    <property name="ttl">1</property>
    <property name="aspect_ratio">1</property>
    <property name="progressive">1</property>
    <property name="seekable">1</property>
    <property name="mlt_service">qimage</property>
    <property name="creation_time">2021-12-07T21:14:32</property>
    <property name="xml">was here</property>
    <property name="shotcut:hash">abbf6b4416c0dd9bdc12474f2da227b9</property>
    <property name="shotcut:caption">frame-5130680.svg</property>
    <filter id="filter5" out="00:51:52.350">
      <property name="background">color:#00000000</property>
      <property name="mlt_service">affine</property>
      <property name="shotcut:filter">affineSizePosition</property>
      <property name="transition.fill">1</property>
      <property name="transition.distort">0</property>
      <property name="transition.rect">983 98.007 877 541.986 1</property>
      <property name="transition.valign">middle</property>
      <property name="transition.halign">center</property>
      <property name="shotcut:animIn">00:00:00.000</property>
      <property name="shotcut:animOut">00:00:00.000</property>
      <property name="transition.threads">0</property>
    </filter>
  </producer>
  <playlist id="playlist5">
    <property name="shotcut:video">1</property>
    <property name="shotcut:name">Frame-Sotirios</property>
    <property name="shotcut:lock">1</property>
    <blank length="00:00:10.050"/>
    <entry producer="producer48" in="00:00:00.000" out="00:51:52.350"/>
  </playlist>
  <producer id="producer49" in="00:00:00.000" out="03:59:59.983">
    <property name="length">04:00:00.000</property>
    <property name="eof">pause</property>
    <property name="resource">images/logo.png</property>
    <property name="ttl">1</property>
    <property name="aspect_ratio">1</property>
    <property name="progressive">1</property>
    <property name="seekable">1</property>
    <property name="mlt_service">qimage</property>
    <property name="creation_time">2020-05-28T14:07:50</property>
    <property name="xml">was here</property>
    <property name="shotcut:hash">5767969113bde37c518dbea4398f47b1</property>
    <property name="shotcut:caption">logo.png</property>
    <filter id="filter6" out="00:00:10.933">
      <property name="background">color:#00000000</property>
      <property name="mlt_service">affine</property>
      <property name="shotcut:filter">affineSizePosition</property>
      <property name="transition.fill">1</property>
      <property name="transition.distort">0</property>
      <property name="transition.rect">538.407 85.1232 843.186 909.754 1</property>
      <property name="transition.valign">middle</property>
      <property name="transition.halign">center</property>
      <property name="shotcut:animIn">00:00:00.000</property>
      <property name="shotcut:animOut">00:00:00.000</property>
      <property name="transition.threads">0</property>
    </filter>
    <filter id="filter7" out="00:00:10.933">
      <property name="start">1</property>
      <property name="level">1</property>
      <property name="mlt_service">brightness</property>
      <property name="shotcut:filter">fadeOutBrightness</property>
      <property name="alpha">00:00:08.783=1;00:00:10.933=0</property>
      <property name="shotcut:animOut">00:00:02.167</property>
    </filter>
  </producer>
  <producer id="producer50" in="00:00:00.000" out="03:59:59.983">
    <property name="length">04:00:00.000</property>
    <property name="eof">pause</property>
    <property name="resource">images/andro_screenshot.png</property>
    <property name="ttl">1</property>
    <property name="aspect_ratio">1</property>
    <property name="progressive">1</property>
    <property name="seekable">1</property>
    <property name="mlt_service">qimage</property>
    <property name="creation_time">2021-12-08T13:02:48</property>
    <property name="xml">was here</property>
    <property name="shotcut:hash">a447d460eaf34a29685aebdcc409dde0</property>
    <property name="shotcut:caption">andro_screenshot.png</property>
    <filter id="filter8" out="00:00:11.633">
      <property name="background">color:#00000000</property>
      <property name="mlt_service">affine</property>
      <property name="shotcut:filter">affineSizePosition</property>
      <property name="transition.fill">0</property>
      <property name="transition.distort">0</property>
      <property name="transition.rect">00:00:10.650=564.286 677.143 791.429 368.571 1;00:00:11.633=0 1080 1920 1080 1</property>
      <property name="transition.valign">middle</property>
      <property name="transition.halign">center</property>
      <property name="shotcut:animIn">00:00:00.000</property>
      <property name="shotcut:animOut">00:00:01.000</property>
      <property name="transition.threads">0</property>
      <property name="transition.fix_rotate_x">00:00:10.650=0;00:00:11.633=0</property>
    </filter>
  </producer>
  <producer id="producer51" in="00:00:00.000" out="03:59:59.983">
    <property name="length">04:00:00.000</property>
    <property name="eof">pause</property>
    <property name="resource">images/house-of-the-dragon-the-sea-snake-1620227915299.jpg</property>
    <property name="ttl">1</property>
    <property name="aspect_ratio">1</property>
    <property name="progressive">1</property>
    <property name="seekable">1</property>
    <property name="mlt_service">qimage</property>
    <property name="creation_time">2021-12-08T15:13:54</property>
    <property name="xml">was here</property>
    <property name="shotcut:hash">b16b167fb103fa1bd195feaf0ccc35ca</property>
    <property name="shotcut:caption">house-of-the-dragon-the-sea-snake-1620227915299.jpg</property>
    <filter id="filter9" out="00:00:05.750">
      <property name="background">color:#00000000</property>
      <property name="mlt_service">affine</property>
      <property name="shotcut:filter">affineSizePosition</property>
      <property name="transition.fill">0</property>
      <property name="transition.distort">0</property>
      <property name="transition.rect">00:00:04.767=128.571 684.643 462.857 385.714 1;00:00:05.750=-1920 0 1920 1080 1</property>
      <property name="transition.valign">middle</property>
      <property name="transition.halign">center</property>
      <property name="shotcut:animIn">00:00:00.000</property>
      <property name="shotcut:animOut">00:00:01.000</property>
      <property name="transition.threads">0</property>
      <property name="transition.fix_rotate_x">00:00:04.767=0;00:00:05.750=0</property>
    </filter>
  </producer>
  <producer id="producer52" in="00:00:00.000" out="03:59:59.983">
    <property name="length">04:00:00.000</property>
    <property name="eof">pause</property>
    <property name="resource">images/640px-Karl_Marx_001.jpg</property>
    <property name="ttl">1</property>
    <property name="aspect_ratio">1</property>
    <property name="progressive">1</property>
    <property name="seekable">1</property>
    <property name="mlt_service">qimage</property>
    <property name="creation_time">2021-12-08T16:00:52</property>
    <property name="xml">was here</property>
    <property name="shotcut:hash">016d29b89fbd12321e90d2527a417135</property>
    <property name="shotcut:caption">640px-Karl_Marx_001.jpg</property>
    <filter id="filter10" out="00:00:09.133">
      <property name="background">color:#00000000</property>
      <property name="mlt_service">affine</property>
      <property name="shotcut:filter">affineSizePosition</property>
      <property name="transition.fill">1</property>
      <property name="transition.distort">0</property>
      <property name="transition.rect">605.903 660 306.548 408.571 1</property>
      <property name="transition.valign">middle</property>
      <property name="transition.halign">center</property>
      <property name="shotcut:animIn">00:00:00.000</property>
      <property name="shotcut:animOut">00:00:00.000</property>
      <property name="transition.threads">0</property>
      <property name="transition.fix_rotate_x">0</property>
    </filter>
  </producer>
  <producer id="producer53" in="00:00:00.000" out="03:59:59.983">
    <property name="length">04:00:00.000</property>
    <property name="eof">pause</property>
    <property name="resource">images/220px-Jacques-Louis_David_-_The_Emperor_Napoleon_in_His_Study_at_the_Tuileries_-_Google_Art_Project.jpg</property>
    <property name="ttl">1</property>
    <property name="aspect_ratio">1</property>
    <property name="progressive">1</property>
    <property name="seekable">1</property>
    <property name="mlt_service">qimage</property>
    <property name="creation_time">2021-12-08T16:21:24</property>
    <property name="xml">was here</property>
    <property name="shotcut:hash">d6a4dde9ca50e0abc402d0263299c016</property>
    <property name="shotcut:caption">220px-Jacques-Louis_David_-_The_Emperor_Napoleon_in_His_Study_at_the_Tuileries_-_Google_Art_Project.jpg</property>
    <filter id="filter11" out="00:00:03.983">
      <property name="background">color:#00000000</property>
      <property name="mlt_service">affine</property>
      <property name="shotcut:filter">affineSizePosition</property>
      <property name="transition.fill">1</property>
      <property name="transition.distort">0</property>
      <property name="transition.rect">841.917 660 241.495 402.857 1</property>
      <property name="transition.valign">middle</property>
      <property name="transition.halign">center</property>
      <property name="shotcut:animIn">00:00:00.000</property>
      <property name="shotcut:animOut">00:00:00.000</property>
      <property name="transition.threads">0</property>
    </filter>
  </producer>
  <producer id="producer54" in="00:00:00.000" out="03:59:59.983">
    <property name="length">04:00:00.000</property>
    <property name="eof">pause</property>
    <property name="resource">images/59b2a83c15e9f937bd6afb57.jpg</property>
    <property name="ttl">1</property>
    <property name="aspect_ratio">1</property>
    <property name="progressive">1</property>
    <property name="seekable">1</property>
    <property name="mlt_service">qimage</property>
    <property name="creation_time">2021-12-08T16:22:54</property>
    <property name="xml">was here</property>
    <property name="shotcut:hash">7d875ebc130cfd5fda1a25975a33201f</property>
    <property name="shotcut:caption">59b2a83c15e9f937bd6afb57.jpg</property>
    <filter id="filter12" out="00:00:43.033">
      <property name="background">color:#00000000</property>
      <property name="mlt_service">affine</property>
      <property name="shotcut:filter">affineSizePosition</property>
      <property name="transition.fill">1</property>
      <property name="transition.distort">0</property>
      <property name="transition.rect">565.714 622.857 792.381 445.714 1</property>
      <property name="transition.valign">middle</property>
      <property name="transition.halign">center</property>
      <property name="shotcut:animIn">00:00:00.000</property>
      <property name="shotcut:animOut">00:00:00.000</property>
      <property name="transition.threads">0</property>
    </filter>
    <filter id="filter13" out="00:00:43.033">
      <property name="start">1</property>
      <property name="level">1</property>
      <property name="mlt_service">brightness</property>
      <property name="shotcut:filter">fadeOutBrightness</property>
      <property name="alpha">00:00:42.050=1;00:00:43.033=0</property>
      <property name="shotcut:animOut">00:00:01.000</property>
    </filter>
  </producer>
  <producer id="producer55" in="00:00:00.000" out="03:59:59.983">
    <property name="length">04:00:00.000</property>
    <property name="eof">pause</property>
    <property name="resource">images/what_you_do.jpg</property>
    <property name="ttl">1</property>
    <property name="aspect_ratio">1</property>
    <property name="progressive">1</property>
    <property name="seekable">1</property>
    <property name="mlt_service">qimage</property>
    <property name="creation_time">2021-12-08T16:28:28</property>
    <property name="xml">was here</property>
    <property name="shotcut:hash">338b6b638b0ca54f7ac06db4bb4ffad0</property>
    <property name="shotcut:caption">what_you_do.jpg</property>
    <filter id="filter14" out="00:00:37.283">
      <property name="background">color:#00000000</property>
      <property name="mlt_service">affine</property>
      <property name="shotcut:filter">affineSizePosition</property>
      <property name="transition.fill">1</property>
      <property name="transition.distort">0</property>
      <property name="transition.rect">594.429 682.857 251.2 380 1</property>
      <property name="transition.valign">middle</property>
      <property name="transition.halign">center</property>
      <property name="shotcut:animIn">00:00:00.000</property>
      <property name="shotcut:animOut">00:00:00.000</property>
      <property name="transition.threads">0</property>
    </filter>
    <filter id="filter15" out="00:00:37.283">
      <property name="start">1</property>
      <property name="level">1</property>
      <property name="mlt_service">brightness</property>
      <property name="shotcut:filter">fadeOutBrightness</property>
      <property name="alpha">00:00:36.300=1;00:00:37.283=0</property>
      <property name="shotcut:animOut">00:00:01.000</property>
    </filter>
  </producer>
  <producer id="producer56" in="00:00:00.000" out="03:59:59.983">
    <property name="length">04:00:00.000</property>
    <property name="eof">pause</property>
    <property name="resource">images/spartakos.jpg</property>
    <property name="ttl">1</property>
    <property name="aspect_ratio">1</property>
    <property name="progressive">1</property>
    <property name="seekable">1</property>
    <property name="mlt_service">qimage</property>
    <property name="creation_time">2021-12-08T16:40:04</property>
    <property name="xml">was here</property>
    <property name="shotcut:hash">3b5863767d3ddf9d611ef1b815e727fb</property>
    <property name="shotcut:caption">spartakos.jpg</property>
    <filter id="filter16" out="00:00:13.300">
      <property name="background">color:#00000000</property>
      <property name="mlt_service">affine</property>
      <property name="shotcut:filter">affineSizePosition</property>
      <property name="transition.fill">1</property>
      <property name="transition.distort">0</property>
      <property name="transition.rect">817.642 637.143 274.875 417.143 1</property>
      <property name="transition.valign">middle</property>
      <property name="transition.halign">center</property>
      <property name="shotcut:animIn">00:00:00.000</property>
      <property name="shotcut:animOut">00:00:00.000</property>
      <property name="transition.threads">0</property>
    </filter>
    <filter id="filter17" out="00:00:13.300">
      <property name="start">1</property>
      <property name="level">1</property>
      <property name="mlt_service">brightness</property>
      <property name="shotcut:filter">fadeOutBrightness</property>
      <property name="alpha">00:00:12.317=1;00:00:13.300=0</property>
      <property name="shotcut:animOut">00:00:01.000</property>
    </filter>
  </producer>
  <producer id="producer57" in="00:00:00.000" out="03:59:59.983">
    <property name="length">04:00:00.000</property>
    <property name="eof">pause</property>
    <property name="resource">images/1499182635-meereen-2.jpg</property>
    <property name="ttl">1</property>
    <property name="aspect_ratio">1</property>
    <property name="progressive">1</property>
    <property name="seekable">1</property>
    <property name="mlt_service">qimage</property>
    <property name="creation_time">2021-12-08T17:00:30</property>
    <property name="xml">was here</property>
    <property name="shotcut:hash">ab2b8e2420e54df3c0c2f70c3d3ef5b9</property>
    <property name="shotcut:caption">1499182635-meereen-2.jpg</property>
    <filter id="filter18" out="00:00:09.733">
      <property name="background">color:#00000000</property>
      <property name="mlt_service">affine</property>
      <property name="shotcut:filter">affineSizePosition</property>
      <property name="transition.fill">1</property>
      <property name="transition.distort">0</property>
      <property name="transition.rect">675.714 657.143 566.003 377.143 1</property>
      <property name="transition.valign">middle</property>
      <property name="transition.halign">center</property>
      <property name="shotcut:animIn">00:00:00.000</property>
      <property name="shotcut:animOut">00:00:00.000</property>
      <property name="transition.threads">0</property>
    </filter>
    <filter id="filter19" out="00:00:09.733">
      <property name="start">1</property>
      <property name="level">1</property>
      <property name="mlt_service">brightness</property>
      <property name="shotcut:filter">fadeOutBrightness</property>
      <property name="alpha">00:00:08.750=1;00:00:09.733=0</property>
      <property name="shotcut:animOut">00:00:01.000</property>
    </filter>
  </producer>
  <producer id="producer58" in="00:00:00.000" out="03:59:59.983">
    <property name="length">04:00:00.000</property>
    <property name="eof">pause</property>
    <property name="resource">images/1499182832-meereen.jpg</property>
    <property name="ttl">1</property>
    <property name="aspect_ratio">1</property>
    <property name="progressive">1</property>
    <property name="seekable">1</property>
    <property name="mlt_service">qimage</property>
    <property name="creation_time">2021-12-08T17:00:22</property>
    <property name="xml">was here</property>
    <property name="shotcut:hash">1b0a7c59e9d375284acd7d71cc086e2f</property>
    <property name="shotcut:caption">1499182832-meereen.jpg</property>
    <filter id="filter20" out="00:00:17.667">
      <property name="background">color:#00000000</property>
      <property name="mlt_service">affine</property>
      <property name="shotcut:filter">affineSizePosition</property>
      <property name="transition.fill">1</property>
      <property name="transition.distort">0</property>
      <property name="transition.rect">664.286 654.286 587.443 391.429 1</property>
      <property name="transition.valign">middle</property>
      <property name="transition.halign">center</property>
      <property name="shotcut:animIn">00:00:00.000</property>
      <property name="shotcut:animOut">00:00:00.000</property>
      <property name="transition.threads">0</property>
      <property name="transition.fix_rotate_x">0</property>
    </filter>
    <filter id="filter21" out="00:00:17.667">
      <property name="start">1</property>
      <property name="level">1</property>
      <property name="mlt_service">brightness</property>
      <property name="shotcut:filter">fadeOutBrightness</property>
      <property name="alpha">00:00:16.683=1;00:00:17.667=0</property>
      <property name="shotcut:animOut">00:00:01.000</property>
    </filter>
  </producer>
  <producer id="producer59" in="00:00:00.000" out="03:59:59.983">
    <property name="length">04:00:00.000</property>
    <property name="eof">pause</property>
    <property name="resource">images/zizek-and-varoufakis-in-coversation-about-the-future-of-europe-november-16-2015-royal-festival-hall-london.jpg</property>
    <property name="ttl">1</property>
    <property name="aspect_ratio">1</property>
    <property name="progressive">1</property>
    <property name="seekable">1</property>
    <property name="mlt_service">qimage</property>
    <property name="creation_time">2021-12-08T17:05:23</property>
    <property name="xml">was here</property>
    <property name="shotcut:hash">098ee04df4c3790593f91dd82e96b9e4</property>
    <property name="shotcut:caption">zizek-and-varoufakis-in-coversation-about-the-future-of-europe-november-16-2015-royal-festival-hall-london.jpg</property>
    <filter id="filter22" out="00:00:15.483">
      <property name="background">color:#00000000</property>
      <property name="mlt_service">affine</property>
      <property name="shotcut:filter">affineSizePosition</property>
      <property name="transition.fill">1</property>
      <property name="transition.distort">0</property>
      <property name="transition.rect">745.714 642.857 422.857 422.857 1</property>
      <property name="transition.valign">middle</property>
      <property name="transition.halign">center</property>
      <property name="shotcut:animIn">00:00:00.000</property>
      <property name="shotcut:animOut">00:00:00.000</property>
      <property name="transition.threads">0</property>
    </filter>
    <filter id="filter23" out="00:00:15.483">
      <property name="start">1</property>
      <property name="level">1</property>
      <property name="mlt_service">brightness</property>
      <property name="shotcut:filter">fadeOutBrightness</property>
      <property name="alpha">00:00:14.500=1;00:00:15.483=0</property>
      <property name="shotcut:animOut">00:00:01.000</property>
    </filter>
  </producer>
  <producer id="producer60" in="00:00:00.000" out="03:59:59.983">
    <property name="length">04:00:00.000</property>
    <property name="eof">pause</property>
    <property name="resource">images/women_of_got.png</property>
    <property name="ttl">1</property>
    <property name="aspect_ratio">1</property>
    <property name="progressive">1</property>
    <property name="seekable">1</property>
    <property name="mlt_service">qimage</property>
    <property name="creation_time">2021-12-09T10:22:56</property>
    <property name="xml">was here</property>
    <property name="shotcut:hash">4d896ac8a01feed819db0a619fb39f25</property>
    <property name="shotcut:caption">women_of_got.png</property>
    <filter id="filter24" out="00:05:54.033">
      <property name="background">color:#00000000</property>
      <property name="mlt_service">affine</property>
      <property name="shotcut:filter">affineSizePosition</property>
      <property name="transition.fill">0</property>
      <property name="transition.distort">0</property>
      <property name="transition.rect">00:05:53.050=618.496 648.686 683.008 408.432 1;00:05:54.033=0 1080 1920 1080 1</property>
      <property name="transition.valign">middle</property>
      <property name="transition.halign">center</property>
      <property name="shotcut:animIn">00:00:00.000</property>
      <property name="shotcut:animOut">00:00:01.000</property>
      <property name="transition.threads">0</property>
      <property name="transition.fix_rotate_x">00:05:53.050=0;00:05:54.033=0</property>
    </filter>
  </producer>
  <producer id="producer61" in="00:00:00.000" out="03:59:59.983">
    <property name="length">04:00:00.000</property>
    <property name="eof">pause</property>
    <property name="resource">images/spartakos.jpg</property>
    <property name="ttl">1</property>
    <property name="aspect_ratio">1</property>
    <property name="progressive">1</property>
    <property name="seekable">1</property>
    <property name="mlt_service">qimage</property>
    <property name="creation_time">2021-12-08T16:40:04</property>
    <property name="xml">was here</property>
    <property name="shotcut:hash">3b5863767d3ddf9d611ef1b815e727fb</property>
    <property name="shotcut:caption">spartakos.jpg</property>
    <filter id="filter25" out="00:02:49.700">
      <property name="background">color:#00000000</property>
      <property name="mlt_service">affine</property>
      <property name="shotcut:filter">affineSizePosition</property>
      <property name="transition.fill">1</property>
      <property name="transition.distort">0</property>
      <property name="transition.rect">817.642 637.143 274.875 417.143 1</property>
      <property name="transition.valign">middle</property>
      <property name="transition.halign">center</property>
      <property name="shotcut:animIn">00:00:00.000</property>
      <property name="shotcut:animOut">00:00:00.000</property>
      <property name="transition.threads">0</property>
      <property name="transition.fix_rotate_x">0</property>
    </filter>
  </producer>
  <producer id="producer62" in="00:00:00.000" out="03:59:59.983">
    <property name="length">04:00:00.000</property>
    <property name="eof">pause</property>
    <property name="resource">images/logo.png</property>
    <property name="ttl">1</property>
    <property name="aspect_ratio">1</property>
    <property name="progressive">1</property>
    <property name="seekable">1</property>
    <property name="mlt_service">qimage</property>
    <property name="creation_time">2020-05-28T14:07:50</property>
    <property name="xml">was here</property>
    <property name="shotcut:hash">5767969113bde37c518dbea4398f47b1</property>
    <property name="shotcut:caption">logo.png</property>
    <filter id="filter26" out="00:00:30.167">
      <property name="background">color:#00000000</property>
      <property name="mlt_service">affine</property>
      <property name="shotcut:filter">affineSizePosition</property>
      <property name="transition.fill">1</property>
      <property name="transition.distort">0</property>
      <property name="transition.rect">624.081 177.561 671.837 724.877 1</property>
      <property name="transition.valign">middle</property>
      <property name="transition.halign">center</property>
      <property name="shotcut:animIn">00:00:00.000</property>
      <property name="shotcut:animOut">00:00:00.000</property>
      <property name="transition.threads">0</property>
      <property name="transition.fix_rotate_x">0</property>
    </filter>
    <filter id="filter27" out="00:00:30.167">
      <property name="start">1</property>
      <property name="level">1</property>
      <property name="mlt_service">brightness</property>
      <property name="shotcut:filter">fadeOutBrightness</property>
      <property name="alpha">00:00:19.567=1;00:00:30.167=0</property>
      <property name="shotcut:animOut">637</property>
    </filter>
    <filter id="filter28" out="00:00:30.167">
      <property name="window">75</property>
      <property name="max_gain">20dB</property>
      <property name="level">00:00:19.567=0;00:00:30.167=-60</property>
      <property name="mlt_service">volume</property>
      <property name="shotcut:filter">fadeOutVolume</property>
      <property name="shotcut:animOut">637</property>
    </filter>
  </producer>
  <playlist id="playlist6">
    <property name="shotcut:video">1</property>
    <property name="shotcut:name">Images</property>
    <entry producer="producer49" in="00:00:00.000" out="00:00:10.933"/>
    <blank length="00:02:30.267"/>
    <entry producer="producer50" in="00:00:00.000" out="00:00:11.633"/>
    <blank length="00:00:16.583"/>
    <entry producer="producer51" in="00:00:00.000" out="00:00:05.750"/>
    <blank length="00:08:28.917"/>
    <entry producer="producer52" in="00:00:00.000" out="00:00:09.133"/>
    <blank length="00:10:41.900"/>
    <entry producer="producer53" in="00:00:00.000" out="00:00:03.983"/>
    <blank length="00:00:13.233"/>
    <entry producer="producer54" in="00:00:00.000" out="00:00:43.033"/>
    <blank length="00:01:56.250"/>
    <entry producer="producer55" in="00:00:00.000" out="00:00:37.283"/>
    <blank length="00:00:01.950"/>
    <entry producer="producer56" in="00:00:00.000" out="00:00:13.300"/>
    <blank length="00:04:41.700"/>
    <entry producer="producer57" in="00:00:00.000" out="00:00:09.733"/>
    <blank length="00:00:07.883"/>
    <entry producer="producer58" in="00:00:00.000" out="00:00:17.667"/>
    <blank length="00:01:30.783"/>
    <entry producer="producer59" in="00:00:00.000" out="00:00:15.483"/>
    <blank length="00:00:04.733"/>
    <entry producer="producer60" in="00:00:00.000" out="00:05:54.033"/>
    <blank length="00:00:32.400"/>
    <entry producer="producer61" in="00:00:00.000" out="00:02:49.700"/>
    <blank length="00:09:13.750"/>
    <entry producer="producer62" in="00:00:00.000" out="00:00:30.167"/>
  </playlist>
  <chain id="chain0" out="00:00:10.033">
    <property name="length">00:00:10.050</property>
    <property name="eof">pause</property>
    <property name="resource">feta-intro.m4a</property>
    <property name="mlt_service">avformat-novalidate</property>
    <property name="seekable">1</property>
    <property name="audio_index">0</property>
    <property name="video_index">-1</property>
    <property name="mute_on_pause">0</property>
    <property name="shotcut:hash">b38f3110177feed9f9d7d6f4a876dc9a</property>
    <property name="shotcut:caption">feta-intro.m4a</property>
  </chain>
  <playlist id="playlist7">
    <property name="shotcut:audio">1</property>
    <property name="shotcut:name">Intro</property>
    <property name="shotcut:lock">1</property>
    <entry producer="chain0" in="00:00:00.000" out="00:00:10.033"/>
  </playlist>
  <producer id="producer63" in="00:00:00.000" out="03:59:59.983">
    <property name="length">04:00:00.000</property>
    <property name="eof">pause</property>
    <property name="resource">images/house-of-the-dragon-princess-rhaenyra-targaryen-prince-daemon-targaryen-1620227915300.jpg</property>
    <property name="ttl">1</property>
    <property name="aspect_ratio">1</property>
    <property name="progressive">1</property>
    <property name="seekable">1</property>
    <property name="mlt_service">qimage</property>
    <property name="creation_time">2021-12-08T15:12:47</property>
    <property name="xml">was here</property>
    <property name="shotcut:hash">f433b5ff18a0e76ca12bb8d6a453f1b1</property>
    <property name="shotcut:caption">house-of-the-dragon-princess-rhaenyra-targaryen-prince-daemon-targaryen-1620227915300.jpg</property>
    <filter id="filter29" out="00:00:05.833">
      <property name="background">color:#00000000</property>
      <property name="mlt_service">affine</property>
      <property name="shotcut:filter">affineSizePosition</property>
      <property name="transition.fill">0</property>
      <property name="transition.distort">0</property>
      <property name="transition.rect">00:00:04.850=557.143 725.625 805.714 303.75 1;00:00:05.833=0 1080 1920 1080 1</property>
      <property name="transition.valign">middle</property>
      <property name="transition.halign">center</property>
      <property name="shotcut:animIn">00:00:00.000</property>
      <property name="shotcut:animOut">00:00:01.000</property>
      <property name="transition.threads">0</property>
      <property name="transition.fix_rotate_x">00:00:04.850=0;00:00:05.833=0</property>
    </filter>
  </producer>
  <producer id="producer64" in="00:00:00.000" out="03:59:59.983">
    <property name="length">04:00:00.000</property>
    <property name="eof">pause</property>
    <property name="resource">images/Toussaint_Louverture_-_Girardin.jpg</property>
    <property name="ttl">1</property>
    <property name="aspect_ratio">1</property>
    <property name="progressive">1</property>
    <property name="seekable">1</property>
    <property name="mlt_service">qimage</property>
    <property name="creation_time">2021-12-08T16:30:30</property>
    <property name="xml">was here</property>
    <property name="shotcut:hash">23b4e1752010c8474742b0b55d7708ee</property>
    <property name="shotcut:caption">Toussaint_Louverture_-_Girardin.jpg</property>
    <filter id="filter30" out="00:00:37.283">
      <property name="background">color:#00000000</property>
      <property name="mlt_service">affine</property>
      <property name="shotcut:filter">affineSizePosition</property>
      <property name="transition.fill">1</property>
      <property name="transition.distort">0</property>
      <property name="transition.rect">1079.86 677.143 316.631 385.714 1</property>
      <property name="transition.valign">middle</property>
      <property name="transition.halign">center</property>
      <property name="shotcut:animIn">00:00:00.000</property>
      <property name="shotcut:animOut">00:00:00.000</property>
      <property name="transition.threads">0</property>
    </filter>
    <filter id="filter31" out="00:00:37.283">
      <property name="start">1</property>
      <property name="level">1</property>
      <property name="mlt_service">brightness</property>
      <property name="shotcut:filter">fadeOutBrightness</property>
      <property name="alpha">00:00:36.300=1;00:00:37.283=0</property>
      <property name="shotcut:animOut">00:00:01.000</property>
    </filter>
  </producer>
  <producer id="producer65" in="00:00:00.000" out="03:59:59.983">
    <property name="length">04:00:00.000</property>
    <property name="eof">pause</property>
    <property name="resource">images/bretanos_comment.jpeg</property>
    <property name="ttl">1</property>
    <property name="aspect_ratio">1</property>
    <property name="progressive">1</property>
    <property name="seekable">1</property>
    <property name="mlt_service">qimage</property>
    <property name="creation_time">2021-12-09T10:33:59</property>
    <property name="xml">was here</property>
    <property name="shotcut:hash">7b88132177b6db003d509bb53c56b2ee</property>
    <property name="shotcut:caption">bretanos_comment.jpeg</property>
    <filter id="filter32" out="00:00:02.800">
      <property name="background">color:#00000000</property>
      <property name="mlt_service">affine</property>
      <property name="shotcut:filter">affineSizePosition</property>
      <property name="transition.fill">1</property>
      <property name="transition.distort">0</property>
      <property name="transition.rect">128.649 708.75 462.702 337.5 1</property>
      <property name="transition.valign">middle</property>
      <property name="transition.halign">center</property>
      <property name="shotcut:animIn">00:00:00.000</property>
      <property name="shotcut:animOut">00:00:00.000</property>
      <property name="transition.threads">0</property>
      <property name="transition.fix_rotate_x">0</property>
    </filter>
    <filter id="filter33" out="00:00:02.800">
      <property name="start">1</property>
      <property name="level">1</property>
      <property name="mlt_service">brightness</property>
      <property name="shotcut:filter">fadeOutBrightness</property>
      <property name="alpha">00:00:02.317=1;00:00:02.800=0</property>
      <property name="shotcut:animOut">00:00:00.500</property>
    </filter>
  </producer>
  <producer id="producer66" in="00:00:00.000" out="03:59:59.983">
    <property name="length">04:00:00.000</property>
    <property name="eof">pause</property>
    <property name="resource">images/818KSt256KL._AC_SL1500_.jpg</property>
    <property name="ttl">1</property>
    <property name="aspect_ratio">1</property>
    <property name="progressive">1</property>
    <property name="seekable">1</property>
    <property name="mlt_service">qimage</property>
    <property name="creation_time">2021-12-08T16:43:25</property>
    <property name="xml">was here</property>
    <property name="shotcut:hash">4bc71eff55d057dc67be3c5ab9781a15</property>
    <property name="shotcut:caption">818KSt256KL._AC_SL1500_.jpg</property>
    <filter id="filter34" out="00:00:07.350">
      <property name="background">color:#00000000</property>
      <property name="mlt_service">affine</property>
      <property name="shotcut:filter">affineSizePosition</property>
      <property name="transition.fill">0</property>
      <property name="transition.distort">0</property>
      <property name="transition.rect">00:00:00.000=1920 0 1920 1080 1;00:00:00.983=1137.14 631.429 608.571 357.143 1</property>
      <property name="transition.valign">middle</property>
      <property name="transition.halign">center</property>
      <property name="shotcut:animIn">00:00:01.000</property>
      <property name="shotcut:animOut">00:00:00.000</property>
      <property name="transition.threads">0</property>
      <property name="transition.fix_rotate_x">00:00:00.000=0;00:00:00.983=0</property>
    </filter>
    <filter id="filter35" out="00:00:07.350">
      <property name="start">1</property>
      <property name="level">1</property>
      <property name="mlt_service">brightness</property>
      <property name="shotcut:filter">fadeOutBrightness</property>
      <property name="alpha">00:00:06.367=1;00:00:07.350=0</property>
      <property name="shotcut:animOut">00:00:01.000</property>
    </filter>
  </producer>
  <playlist id="playlist8">
    <property name="shotcut:video">1</property>
    <property name="shotcut:name">Images -2</property>
    <blank length="00:03:09.550"/>
    <entry producer="producer63" in="00:00:00.000" out="00:00:05.833"/>
    <blank length="00:22:16.317"/>
    <entry producer="producer64" in="00:00:00.000" out="00:00:37.283"/>
    <blank length="00:07:43.050"/>
    <entry producer="producer65" in="00:00:00.000" out="00:00:02.800"/>
    <blank length="00:07:57.133"/>
    <entry producer="producer66" in="00:00:00.000" out="00:00:07.350"/>
  </playlist>
  <producer id="producer67" in="00:00:00.000" out="03:59:59.983">
    <property name="length">04:00:00.000</property>
    <property name="eof">pause</property>
    <property name="resource">images/house-of-the-dragon-alicent-hightower-otto-hightower-1620227915298.jpg</property>
    <property name="ttl">1</property>
    <property name="aspect_ratio">1</property>
    <property name="progressive">1</property>
    <property name="seekable">1</property>
    <property name="mlt_service">qimage</property>
    <property name="creation_time">2021-12-08T15:11:54</property>
    <property name="xml">was here</property>
    <property name="shotcut:hash">ec8a3c2d570520db11badea9d79ff6ec</property>
    <property name="shotcut:caption">house-of-the-dragon-alicent-hightower-otto-hightower-1620227915298.jpg</property>
    <filter id="filter36" out="00:00:05.767">
      <property name="background">color:#00000000</property>
      <property name="mlt_service">affine</property>
      <property name="shotcut:filter">affineSizePosition</property>
      <property name="transition.fill">0</property>
      <property name="transition.distort">0</property>
      <property name="transition.rect">00:00:00.000=1920 0 1920 1080 1;00:00:00.983=1108.57 727.5 902.857 300 1</property>
      <property name="transition.valign">middle</property>
      <property name="transition.halign">center</property>
      <property name="shotcut:animIn">00:00:01.000</property>
      <property name="shotcut:animOut">00:00:00.000</property>
      <property name="transition.threads">0</property>
      <property name="transition.fix_rotate_x">00:00:00.000=0;00:00:00.983=0</property>
    </filter>
  </producer>
  <producer id="producer68" in="00:00:00.000" out="03:59:59.983">
    <property name="length">04:00:00.000</property>
    <property name="eof">pause</property>
    <property name="resource">images/sanderson.jpg</property>
    <property name="ttl">1</property>
    <property name="aspect_ratio">1</property>
    <property name="progressive">1</property>
    <property name="seekable">1</property>
    <property name="mlt_service">qimage</property>
    <property name="creation_time">2021-12-08T15:40:01</property>
    <property name="xml">was here</property>
    <property name="shotcut:hash">54caae7cf688a7107fec76884bcf505e</property>
    <property name="shotcut:caption">sanderson.jpg</property>
    <filter id="filter37" out="00:00:10.517">
      <property name="background">color:#00000000</property>
      <property name="mlt_service">affine</property>
      <property name="shotcut:filter">affineSizePosition</property>
      <property name="transition.fill">1</property>
      <property name="transition.distort">0</property>
      <property name="transition.rect">690 675 540 405 1</property>
      <property name="transition.valign">middle</property>
      <property name="transition.halign">center</property>
      <property name="shotcut:animIn">00:00:00.000</property>
      <property name="shotcut:animOut">00:00:00.000</property>
      <property name="transition.threads">0</property>
    </filter>
    <filter id="filter38" out="00:00:10.517">
      <property name="start">1</property>
      <property name="level">1</property>
      <property name="mlt_service">brightness</property>
      <property name="shotcut:filter">fadeOutBrightness</property>
      <property name="alpha">00:00:09.533=1;00:00:10.517=0</property>
      <property name="shotcut:animOut">00:00:01.000</property>
    </filter>
  </producer>
  <producer id="producer69" in="00:00:00.000" out="03:59:59.983">
    <property name="length">04:00:00.000</property>
    <property name="eof">pause</property>
    <property name="resource">images/GettyImages-953506302.jpg</property>
    <property name="ttl">1</property>
    <property name="aspect_ratio">1</property>
    <property name="progressive">1</property>
    <property name="seekable">1</property>
    <property name="mlt_service">qimage</property>
    <property name="creation_time">2021-12-08T15:43:11</property>
    <property name="xml">was here</property>
    <property name="shotcut:hash">e9b4bed9beb4d0b94a3f423970a63062</property>
    <property name="shotcut:caption">GettyImages-953506302.jpg</property>
    <filter id="filter39" out="00:00:06.950">
      <property name="background">color:#00000000</property>
      <property name="mlt_service">affine</property>
      <property name="shotcut:filter">affineSizePosition</property>
      <property name="transition.fill">0</property>
      <property name="transition.distort">0</property>
      <property name="transition.rect">00:00:05.967=548.571 675.625 822.857 391.607 1;00:00:06.950=0 1080 1920 1080 1</property>
      <property name="transition.valign">middle</property>
      <property name="transition.halign">center</property>
      <property name="shotcut:animIn">00:00:00.000</property>
      <property name="shotcut:animOut">00:00:01.000</property>
      <property name="transition.threads">0</property>
      <property name="transition.fix_rotate_x">00:00:05.967=0;00:00:06.950=0</property>
    </filter>
  </producer>
  <producer id="producer70" in="00:00:00.000" out="03:59:59.983">
    <property name="length">04:00:00.000</property>
    <property name="eof">pause</property>
    <property name="resource">images/Screenshot from 2021-12-08 12-44-24.png</property>
    <property name="ttl">1</property>
    <property name="aspect_ratio">1</property>
    <property name="progressive">1</property>
    <property name="seekable">1</property>
    <property name="mlt_service">qimage</property>
    <property name="creation_time">2021-12-08T12:44:28</property>
    <property name="xml">was here</property>
    <property name="shotcut:hash">a8c7b5ac5450738ddfb5050b7afe1692</property>
    <property name="shotcut:caption">Screenshot from 2021-12-08 12-44-24.png</property>
    <filter id="filter40" out="00:00:03.983">
      <property name="background">color:#00000000</property>
      <property name="mlt_service">affine</property>
      <property name="shotcut:filter">affineSizePosition</property>
      <property name="transition.fill">1</property>
      <property name="transition.distort">0</property>
      <property name="transition.rect">600 692.143 721.94 364.998 1</property>
      <property name="transition.valign">middle</property>
      <property name="transition.halign">center</property>
      <property name="shotcut:animIn">00:00:00.000</property>
      <property name="shotcut:animOut">00:00:00.000</property>
      <property name="transition.threads">0</property>
    </filter>
    <filter id="filter41" out="00:00:03.983">
      <property name="start">1</property>
      <property name="level">1</property>
      <property name="mlt_service">brightness</property>
      <property name="shotcut:filter">fadeOutBrightness</property>
      <property name="alpha">00:00:03.000=1;00:00:03.983=0</property>
      <property name="shotcut:animOut">00:00:01.000</property>
    </filter>
    <filter id="filter42" out="00:00:03.983">
      <property name="start">1</property>
      <property name="level">1</property>
      <property name="mlt_service">brightness</property>
      <property name="shotcut:filter">fadeInBrightness</property>
      <property name="alpha">00:00:00.000=0;00:00:00.983=1</property>
      <property name="shotcut:animIn">00:00:01.000</property>
    </filter>
  </producer>
  <producer id="producer71" in="00:00:00.000" out="03:59:59.983">
    <property name="length">04:00:00.000</property>
    <property name="eof">pause</property>
    <property name="resource">images/01-dany-and-army.jpg</property>
    <property name="ttl">1</property>
    <property name="aspect_ratio">1</property>
    <property name="progressive">1</property>
    <property name="seekable">1</property>
    <property name="mlt_service">qimage</property>
    <property name="creation_time">2021-12-02T16:41:00</property>
    <property name="shotcut:caption">01-dany-and-army.jpg</property>
    <property name="shotcut:hash">17ff045bab847a9f78fb1a6fe674af27</property>
    <property name="ignore_points">0</property>
    <property name="xml">was here</property>
    <filter id="filter43" out="00:00:07.550">
      <property name="background">color:#00000000</property>
      <property name="mlt_service">affine</property>
      <property name="shotcut:filter">affineSizePosition</property>
      <property name="transition.fill">1</property>
      <property name="transition.distort">0</property>
      <property name="transition.rect">651.746 700 619.683 348.571 1</property>
      <property name="transition.valign">middle</property>
      <property name="transition.halign">center</property>
      <property name="shotcut:animIn">00:00:00.000</property>
      <property name="shotcut:animOut">00:00:00.000</property>
      <property name="transition.threads">0</property>
      <property name="transition.fix_rotate_x">0</property>
    </filter>
    <filter id="filter44" out="00:00:07.550">
      <property name="start">1</property>
      <property name="level">1</property>
      <property name="mlt_service">brightness</property>
      <property name="shotcut:filter">fadeOutBrightness</property>
      <property name="alpha">00:00:06.567=1;00:00:07.550=0</property>
      <property name="shotcut:animOut">00:00:01.000</property>
    </filter>
    <filter id="filter45" out="00:00:07.550">
      <property name="start">1</property>
      <property name="level">1</property>
      <property name="mlt_service">brightness</property>
      <property name="shotcut:filter">fadeInBrightness</property>
      <property name="alpha">00:00:00.000=0;00:00:00.983=1</property>
      <property name="shotcut:animIn">00:00:01.000</property>
    </filter>
  </producer>
  <producer id="producer72" in="00:00:00.000" out="03:59:59.983">
    <property name="length">04:00:00.000</property>
    <property name="eof">pause</property>
    <property name="resource">images/Victory_Parade_1945.ogv.jpg</property>
    <property name="ttl">1</property>
    <property name="aspect_ratio">1</property>
    <property name="progressive">1</property>
    <property name="seekable">1</property>
    <property name="mlt_service">qimage</property>
    <property name="creation_time">2021-12-08T15:49:47</property>
    <property name="xml">was here</property>
    <property name="shotcut:hash">f3ffc3112a02827802f2974e5325f7a4</property>
    <property name="shotcut:caption">Victory_Parade_1945.ogv.jpg</property>
    <filter id="filter46" out="00:00:04.783">
      <property name="background">color:#00000000</property>
      <property name="mlt_service">affine</property>
      <property name="shotcut:filter">affineSizePosition</property>
      <property name="transition.fill">1</property>
      <property name="transition.distort">0</property>
      <property name="transition.rect">702.857 685.714 506.667 380 1</property>
      <property name="transition.valign">middle</property>
      <property name="transition.halign">center</property>
      <property name="shotcut:animIn">00:00:00.000</property>
      <property name="shotcut:animOut">00:00:00.000</property>
      <property name="transition.threads">0</property>
      <property name="transition.fix_rotate_x">0</property>
    </filter>
    <filter id="filter47" out="00:00:04.783">
      <property name="start">1</property>
      <property name="level">1</property>
      <property name="mlt_service">brightness</property>
      <property name="shotcut:filter">fadeInBrightness</property>
      <property name="alpha">00:00:00.000=0;00:00:00.983=1</property>
      <property name="shotcut:animIn">00:00:01.000</property>
    </filter>
    <filter id="filter48" out="00:00:04.783">
      <property name="start">1</property>
      <property name="level">1</property>
      <property name="mlt_service">brightness</property>
      <property name="shotcut:filter">fadeOutBrightness</property>
      <property name="alpha">00:00:03.800=1;00:00:04.783=0</property>
      <property name="shotcut:animOut">00:00:01.000</property>
    </filter>
  </producer>
  <producer id="producer73" in="00:00:00.000" out="03:59:59.983">
    <property name="length">04:00:00.000</property>
    <property name="eof">pause</property>
    <property name="resource">images/westeros_map.jpg</property>
    <property name="ttl">1</property>
    <property name="aspect_ratio">1</property>
    <property name="progressive">1</property>
    <property name="seekable">1</property>
    <property name="mlt_service">qimage</property>
    <property name="creation_time">2021-12-08T15:54:01</property>
    <property name="xml">was here</property>
    <property name="shotcut:hash">b9e8eaa9d33b2403c1d8a928f732ca7c</property>
    <property name="shotcut:caption">westeros_map.jpg</property>
    <filter id="filter49" out="00:01:47.850">
      <property name="background">color:#00000000</property>
      <property name="mlt_service">affine</property>
      <property name="shotcut:filter">affineSizePosition</property>
      <property name="transition.fill">0</property>
      <property name="transition.distort">0</property>
      <property name="transition.rect">00:01:46.867=440 637.143 1034.29 428.571 1;00:01:47.850=0 1080 1920 1080 1</property>
      <property name="transition.valign">middle</property>
      <property name="transition.halign">center</property>
      <property name="shotcut:animIn">00:00:00.000</property>
      <property name="shotcut:animOut">00:00:01.000</property>
      <property name="transition.threads">0</property>
      <property name="transition.fix_rotate_x">00:01:46.867=0;00:01:47.850=0</property>
    </filter>
  </producer>
  <producer id="producer74" in="00:00:00.000" out="03:59:59.983">
    <property name="length">04:00:00.000</property>
    <property name="eof">pause</property>
    <property name="resource">images/640px-Hegel_by_BÃ¼rkner.jpg</property>
    <property name="ttl">1</property>
    <property name="aspect_ratio">1</property>
    <property name="progressive">1</property>
    <property name="seekable">1</property>
    <property name="mlt_service">qimage</property>
    <property name="creation_time">2021-12-08T16:00:23</property>
    <property name="xml">was here</property>
    <property name="shotcut:hash">f1fe03f62c56c91440084321a012984c</property>
    <property name="shotcut:caption">640px-Hegel_by_BÃ¼rkner.jpg</property>
    <filter id="filter50" out="00:00:09.333">
      <property name="background">color:#00000000</property>
      <property name="mlt_service">affine</property>
      <property name="shotcut:filter">affineSizePosition</property>
      <property name="transition.fill">1</property>
      <property name="transition.distort">0</property>
      <property name="transition.rect">1024.71 660 326.531 400 1</property>
      <property name="transition.valign">middle</property>
      <property name="transition.halign">center</property>
      <property name="shotcut:animIn">00:00:00.000</property>
      <property name="shotcut:animOut">00:00:00.000</property>
      <property name="transition.threads">0</property>
    </filter>
  </producer>
  <producer id="producer75" in="00:00:00.000" out="03:59:59.983">
    <property name="length">04:00:00.000</property>
    <property name="eof">pause</property>
    <property name="resource">images/Screenshot from 2021-12-08 16-12-50.png</property>
    <property name="ttl">1</property>
    <property name="aspect_ratio">1</property>
    <property name="progressive">1</property>
    <property name="seekable">1</property>
    <property name="mlt_service">qimage</property>
    <property name="creation_time">2021-12-08T16:12:52</property>
    <property name="xml">was here</property>
    <property name="shotcut:hash">82dedd9109809ece086b95cc1aee91d8</property>
    <property name="shotcut:caption">Screenshot from 2021-12-08 16-12-50.png</property>
    <filter id="filter51" out="00:00:40.650">
      <property name="background">color:#00000000</property>
      <property name="mlt_service">affine</property>
      <property name="shotcut:filter">affineSizePosition</property>
      <property name="transition.fill">0</property>
      <property name="transition.distort">0</property>
      <property name="transition.rect">00:00:39.667=434.286 642.857 1051.43 414.286 1;00:00:40.650=0 1080 1920 1080 1</property>
      <property name="transition.valign">middle</property>
      <property name="transition.halign">center</property>
      <property name="shotcut:animIn">00:00:00.000</property>
      <property name="shotcut:animOut">00:00:01.000</property>
      <property name="transition.threads">0</property>
      <property name="transition.fix_rotate_x">00:00:39.667=0;00:00:40.650=0</property>
    </filter>
  </producer>
  <playlist id="playlist9">
    <property name="shotcut:video">1</property>
    <property name="shotcut:name">Images - 3</property>
    <blank length="00:03:09.683"/>
    <entry producer="producer67" in="00:00:00.000" out="00:00:05.767"/>
    <blank length="00:01:55.917"/>
    <entry producer="producer68" in="00:00:00.000" out="00:00:10.517"/>
    <blank length="00:01:28.300"/>
    <entry producer="producer69" in="00:00:00.000" out="00:00:06.950"/>
    <blank length="00:00:14.767"/>
    <entry producer="producer70" in="00:00:00.000" out="00:00:03.983"/>
    <blank length="00:00:13.500"/>
    <entry producer="producer71" in="00:00:00.000" out="00:00:07.550"/>
    <blank length="00:00:06.700"/>
    <entry producer="producer72" in="00:00:00.000" out="00:00:04.783"/>
    <blank length="00:00:19.383"/>
    <entry producer="producer73" in="00:00:00.000" out="00:01:47.850"/>
    <blank length="00:01:48.367"/>
    <entry producer="producer74" in="00:00:00.000" out="00:00:09.333"/>
    <blank length="00:04:07.533"/>
    <entry producer="producer75" in="00:00:00.000" out="00:00:40.650"/>
  </playlist>
  <tractor id="tractor10" title="Shotcut version 21.10.31" in="00:00:00.000" out="00:52:32.400">
    <property name="shotcut">1</property>
    <property name="shotcut:projectAudioChannels">2</property>
    <property name="shotcut:projectFolder">0</property>
    <property name="shotcut:scaleFactor">0.084088</property>
    <track producer="background"/>
    <track producer="playlist0"/>
    <track producer="playlist1" hide="audio"/>
    <track producer="playlist2"/>
    <track producer="playlist3"/>
    <track producer="playlist4"/>
    <track producer="playlist5"/>
    <track producer="playlist6"/>
    <track producer="playlist7" hide="video"/>
    <track producer="playlist8"/>
    <track producer="playlist9"/>
    <transition id="transition18">
      <property name="a_track">0</property>
      <property name="b_track">1</property>
      <property name="mlt_service">mix</property>
      <property name="always_active">1</property>
      <property name="sum">1</property>
    </transition>
    <transition id="transition19">
      <property name="a_track">0</property>
      <property name="b_track">1</property>
      <property name="version">0.9</property>
      <property name="mlt_service">frei0r.cairoblend</property>
      <property name="threads">0</property>
      <property name="disable">1</property>
    </transition>
    <transition id="transition20">
      <property name="a_track">0</property>
      <property name="b_track">2</property>
      <property name="mlt_service">mix</property>
      <property name="always_active">1</property>
      <property name="sum">1</property>
    </transition>
    <transition id="transition21">
      <property name="a_track">1</property>
      <property name="b_track">2</property>
      <property name="version">0.9</property>
      <property name="mlt_service">frei0r.cairoblend</property>
      <property name="threads">0</property>
      <property name="disable">0</property>
    </transition>
    <transition id="transition22">
      <property name="a_track">0</property>
      <property name="b_track">3</property>
      <property name="mlt_service">mix</property>
      <property name="always_active">1</property>
      <property name="sum">1</property>
    </transition>
    <transition id="transition23">
      <property name="a_track">1</property>
      <property name="b_track">3</property>
      <property name="version">0.9</property>
      <property name="mlt_service">frei0r.cairoblend</property>
      <property name="threads">0</property>
      <property name="disable">0</property>
    </transition>
    <transition id="transition24">
      <property name="a_track">0</property>
      <property name="b_track">4</property>
      <property name="mlt_service">mix</property>
      <property name="always_active">1</property>
      <property name="sum">1</property>
    </transition>
    <transition id="transition25">
      <property name="a_track">1</property>
      <property name="b_track">4</property>
      <property name="version">0.9</property>
      <property name="mlt_service">frei0r.cairoblend</property>
      <property name="threads">0</property>
      <property name="disable">0</property>
    </transition>
    <transition id="transition26">
      <property name="a_track">0</property>
      <property name="b_track">5</property>
      <property name="mlt_service">mix</property>
      <property name="always_active">1</property>
      <property name="sum">1</property>
    </transition>
    <transition id="transition27">
      <property name="a_track">1</property>
      <property name="b_track">5</property>
      <property name="version">0.9</property>
      <property name="mlt_service">frei0r.cairoblend</property>
      <property name="threads">0</property>
      <property name="disable">0</property>
    </transition>
    <transition id="transition28">
      <property name="a_track">0</property>
      <property name="b_track">6</property>
      <property name="mlt_service">mix</property>
      <property name="always_active">1</property>
      <property name="sum">1</property>
    </transition>
    <transition id="transition29">
      <property name="a_track">1</property>
      <property name="b_track">6</property>
      <property name="version">0.9</property>
      <property name="mlt_service">frei0r.cairoblend</property>
      <property name="threads">0</property>
      <property name="disable">0</property>
    </transition>
    <transition id="transition30">
      <property name="a_track">0</property>
      <property name="b_track">7</property>
      <property name="mlt_service">mix</property>
      <property name="always_active">1</property>
      <property name="sum">1</property>
    </transition>
    <transition id="transition31">
      <property name="a_track">1</property>
      <property name="b_track">7</property>
      <property name="version">0.9</property>
      <property name="mlt_service">frei0r.cairoblend</property>
      <property name="threads">0</property>
      <property name="disable">0</property>
    </transition>
    <transition id="transition32">
      <property name="a_track">0</property>
      <property name="b_track">8</property>
      <property name="mlt_service">mix</property>
      <property name="always_active">1</property>
      <property name="sum">1</property>
    </transition>
    <transition id="transition33">
      <property name="a_track">0</property>
      <property name="b_track">9</property>
      <property name="mlt_service">mix</property>
      <property name="always_active">1</property>
      <property name="sum">1</property>
    </transition>
    <transition id="transition34">
      <property name="a_track">1</property>
      <property name="b_track">9</property>
      <property name="version">0.9</property>
      <property name="mlt_service">frei0r.cairoblend</property>
      <property name="threads">0</property>
      <property name="disable">0</property>
    </transition>
    <transition id="transition35">
      <property name="a_track">0</property>
      <property name="b_track">10</property>
      <property name="mlt_service">mix</property>
      <property name="always_active">1</property>
      <property name="sum">1</property>
    </transition>
    <transition id="transition36">
      <property name="a_track">1</property>
      <property name="b_track">10</property>
      <property name="version">0.9</property>
      <property name="mlt_service">frei0r.cairoblend</property>
      <property name="threads">0</property>
      <property name="disable">0</property>
    </transition>
  </tractor>
</mlt>
