<?xml version="1.0" encoding="UTF-8" standalone="no"?>
<svg xmlns:rdf="http://www.w3.org/1999/02/22-rdf-syntax-ns#" xmlns="http://www.w3.org/2000/svg" height="96.67032" width="91.08686" version="1.1" xmlns:cc="http://creativecommons.org/ns#" xmlns:dc="http://purl.org/dc/elements/1.1/" viewBox="0 0 91.08686 96.67032"><path d="M89.95181,20.17883a98.68939,98.68939,0,0,0-13.38217-5.5105V6.45789A2.06169,2.06169,0,0,0,75.125,4.489a99.3657,99.3657,0,0,0-59.07684.00592A2.062,2.062,0,0,0,14.60375,6.464v8.21094a98.74326,98.74326,0,0,0-13.47094,5.558A2.0634,2.0634,0,0,0,0,22.07593V58.21637a2.06346,2.06346,0,0,0,1.13282,1.84326,98.81819,98.81819,0,0,0,14.819,6.02878q-.0115.4151-.01208.832a29.66194,29.66194,0,1,0,59.32362,0c0-.27942-.00494-.5575-.01212-.83469a98.88539,98.88539,0,0,0,14.70058-5.97241,2.06317,2.06317,0,0,0,1.13506-1.84372V22.02246a2.06293,2.06293,0,0,0-1.13506-1.84363" fill="#fff"/><path d="M89.95181,20.17883a98.68939,98.68939,0,0,0-13.38217-5.5105V6.45789A2.06169,2.06169,0,0,0,75.125,4.489a99.3657,99.3657,0,0,0-59.07684.00592A2.062,2.062,0,0,0,14.60375,6.464v8.21094a98.74326,98.74326,0,0,0-13.47094,5.558A2.0634,2.0634,0,0,0,0,22.07593V58.21637a2.06346,2.06346,0,0,0,1.13282,1.84326,98.81819,98.81819,0,0,0,14.819,6.02878q-.0115.4151-.01208.832a29.66194,29.66194,0,1,0,59.32362,0c0-.27942-.00494-.5575-.01212-.83469a98.88539,98.88539,0,0,0,14.70058-5.97241,2.06317,2.06317,0,0,0,1.13506-1.84372V22.02246a2.06293,2.06293,0,0,0-1.13506-1.84363" fill="#005831"/><path d="M89.23507,21.613a97.07121,97.07121,0,0,0-14.26512-5.78961V6.45789a.45761.45761,0,0,0-.32085-.43732,97.77287,97.77287,0,0,0-58.12484.00574.45893.45893,0,0,0-.321.43768v9.3653A97.114,97.114,0,0,0,1.85115,21.6662a.45845.45845,0,0,0-.25211.40973V58.21637a.459.459,0,0,0,.25211.4101A96.99669,96.99669,0,0,0,17.806,64.973c-.04453.644-.0689,1.293-.0689,1.94827a27.86386,27.86386,0,1,0,55.72747,0c0-.65616-.02426-1.30649-.06874-1.951a96.96381,96.96381,0,0,0,15.8392-6.291.4572.4572,0,0,0,.25211-.40967V22.02246a.4572.4572,0,0,0-.25211-.40948m-43.633,72.33926a27.031,27.031,0,1,1,26.949-27.031A27.02395,27.02395,0,0,1,45.60207,93.95224ZM88.57363,57.97748a96.18159,96.18159,0,0,1-15.25688,6.05536A27.85659,27.85659,0,0,0,17.885,64.0351,96.20254,96.20254,0,0,1,2.51313,57.9252V22.36462a96.20763,96.20763,0,0,1,14.283-5.76776.4585.4585,0,0,0,.321-.43744V6.808A96.7334,96.7334,0,0,1,74.056,6.80206v9.35138a.45776.45776,0,0,0,.32129.43732,96.21883,96.21883,0,0,1,14.19638,5.72107Z" fill="#ffc121"/><path d="M57.56919,58.32541a.74275.74275,0,0,0-.58907-.28931.73124.73124,0,0,0-.29031.05948l-.0009-.00134a9.58286,9.58286,0,0,0-4.3744,3.77353h7.13031a14.77634,14.77634,0,0,0-1.87563-3.54236" fill="#ffc121"/><path d="M34.55932,58.06a.76813.76813,0,0,0-.24158-.04056.7493.7493,0,0,0-.61848.32629v-.00092a14.77289,14.77289,0,0,0-1.86105,3.523h7.17688A9.5795,9.5795,0,0,0,34.55932,58.06" fill="#ffc121"/><path d="M31.74714,71.72058A14.72378,14.72378,0,0,0,33.64506,75.418l.00151-.00046a.747.747,0,0,0,.61635.32629.70791.70791,0,0,0,.2804-.05591,9.57371,9.57371,0,0,0,4.56418-3.96735H31.74714" fill="#ffc121"/><path d="M56.74017,75.66495a.73818.73818,0,0,0,.29251.06.748.748,0,0,0,.617-.32587h.00179a14.60213,14.60213,0,0,0,1.88322-3.67847H52.22373a9.56719,9.56719,0,0,0,4.51643,3.94888v-.00452" fill="#ffc121"/><path d="M55.62713,77.43658a.64448.64448,0,0,0-.315-.55344,11.31748,11.31748,0,0,1-5.01657-5.16257H46.48772V80.544a.98866.98866,0,0,0,.9877.98972c.01393,0,.0265,0,.03909-.00092a14.61371,14.61371,0,0,0,7.92792-3.63565l-.0027-.00409a.64487.64487,0,0,0,.18739-.45651" fill="#ffc121"/><path d="M41.03283,71.72058a11.31451,11.31451,0,0,1-5.02954,5.16888v.00226a.64458.64458,0,0,0-.19113.97571,14.609,14.609,0,0,0,7.93277,3.66541c.01978.00092.03949.00092.05968.00092a.98664.98664,0,0,0,.98459-.95364V71.72058H41.03283" fill="#ffc121"/><path d="M44.78515,53.30075a.98728.98728,0,0,0-.98625-.98834c-.0195,0-.04034,0-.05989.0018v-.0018a14.6241,14.6241,0,0,0-7.80988,3.555l.00412.005a.64518.64518,0,0,0,.11235,1.00229,11.3013,11.3013,0,0,1,4.91106,4.9931h3.83253v-8.567h-.004" fill="#ffc121"/><path d="M55.21462,56.89722a.64694.64694,0,0,0,.1694-1.00232,14.61549,14.61549,0,0,0-7.84749-3.58472v.004c-.01843-.0018-.03957-.0018-.05978-.0018a.98812.98812,0,0,0-.98676.98834h-.00227v8.567h3.8842a11.31443,11.31443,0,0,1,4.84491-4.96021l-.00221-.01035" fill="#ffc121"/><path d="M69.43345,66.51294a3.08417,3.08417,0,0,0-3.0713-2.95193H29.81593v-.00452a.484.484,0,0,1-.48293-.48267.60315.60315,0,0,1,.01645-.10818,16.68026,16.68026,0,0,1,28.08182-7.8707V55.09a4.45212,4.45212,0,0,0,3.12657,1.31732h5.13295a.79743.79743,0,0,0,.79494-.7995.78161.78161,0,0,0-.09616-.37949A23.82519,23.82519,0,0,0,47.52575,43.08942a.06418.06418,0,0,1-.02069-.00223c-.31723-.0242-.63315-.046-.95531-.05695h-.00359c-.31189-.01013-.6273-.02139-.94409-.02139h-.0274c-.02652,0-.05844.0029-.08586.0029A23.87211,23.87211,0,0,0,21.76573,66.92126v.06491a3.08272,3.08272,0,0,0,3.07612,3.04526v.00272s4.325-.01038,4.325-.01489h32.2942a.48892.48892,0,0,1,.47359.48315c0,.023-.01033.0437-.01033.064A16.74028,16.74028,0,0,1,45.60207,83.69611c-.09616,0-.19907-.00226-.29478-.00632-.40172-.00632-.79311-.027-1.18539-.05948-.02655-.00452-.048-.00452-.074-.00723-.14592-.01395-.29005-.03064-.42935-.04639-.10754-.01489-.21988-.02707-.32651-.04327-.0542-.00494-.10245-.01263-.15665-.02075-.14066-.02206-.27277-.04324-.41273-.06531-.00479,0-.00479,0-.00989-.00589a16.58648,16.58648,0,0,1-8.90913-4.65237l-.00523.00766a4.461,4.461,0,0,0-3.088-1.31644H25.47424a.79746.79746,0,0,0-.76665.795.74117.74117,0,0,0,.0634.31143A23.85506,23.85506,0,0,0,41.09884,90.40179c.0856.0144.1716.03561.25716.05139.15512.027.3118.0491.46625.07483.15625.02341.31158.05.46648.07028.118.01578.23586.03247.35324.04645.20319.02386.40831.0509.61237.06982.08426.00586.16591.01309.251.02118.24664.02344.49434.04013.74579.05408.04826.00226.09544.00452.14438.00632.40265.02252.80394.03293,1.20656.03293A23.87736,23.87736,0,0,0,69.44381,66.92126c0-.13925-.00452-.2731-.01036-.40833" fill="#fff"/><path d="M46.50391,6.61548l2.11916.03693V4.941s-1.8082-.04993-3.17871-.04993c-1.3714,0-3.166.04968-3.166.04968V6.6524h2.08023v5.9649h2.14529V6.61548" fill="#fff"/><path d="M54.3415,6.931l2.0994.22485V5.39679s-1.739-.19037-3.14546-.25751c-1.40512-.06732-3.198-.158-3.198-.158V6.692l2.03644.10205.02292,6.02045,1.07216.07172,1.12746.08942L54.3415,6.931" fill="#fff"/><path d="M60.33543,5.82892S59.811,5.76556,59.248,5.68921C58.68452,5.613,58.19068,5.571,58.19068,5.571v7.81256l2.50151.36353,2.6557.43878V12.47473l-3.01247-.49951V5.82892" fill="#fff"/><path d="M70.15421,9.37738V7.5542s-1.7354-.39832-2.61029-.55786c-.874-.16-2.471-.45135-2.471-.45135v7.96667s1.20607.23938,2.39325.50586c1.18764.26611,2.688.65778,2.688.65778V13.89148l-3.05153-.72113V11.75751l2.8983.70972V10.66034l-2.8983-.68018V8.65656l3.05153.72083" fill="#fff"/><path d="M32.24018,7.34692V5.65112s-1.52884.19586-2.64476.35675c-1.11682.16064-2.484.37628-2.484.37628v7.92322s1.39828-.25769,2.49843-.42957c1.09882-.17206,2.63031-.40112,2.63031-.40112V11.76575l-3.05092.47876V10.83112l2.89709-.46631V8.666l-2.89709.45355V7.83917l3.05092-.49225" fill="#fff"/><path d="M39.52151,11.43646s.50356,1.202.53781,1.31952l2.16667-.09552c-.25169-.65332-2.86113-6.96686-3.11349-7.59418l-2.09293.13019-3.16542,8.09424,2.1239-.22925.56386-1.38953,2.9796-.23547M38.93638,9.9339l-1.78712.14355c.05707-.20862.90485-2.55981.90485-2.55981S38.87908,9.73761,38.93638,9.9339Z" fill="#fff"/><path d="M25.47424,12.70471c.00943-2.04132-1.953-2.31238-2.64915-2.43011-1.3413-.22711-1.175-1.3725.13425-1.49023a7.10011,7.10011,0,0,1,1.81454.13422l.00282-.0119V7.0116c-1.20938-.13959-4.46215-.27008-4.99731,2.27057-.67358,3.2016,3.3684,2.175,3.51673,3.41266.11235.94165-.89124,1.50824-3.40482,1.02789v1.75275c1.078.19037,5.56778.53516,5.58293-2.77075" fill="#fff"/><path d="M48.13192,15.51862H42.21413c-.14745,0-.22029,0-.22029.12195v2.40125c0,.16193,0,.20245.22029.20245l.73544-.01538c.18365,0,.25627.08167.25627.24316v8.11288c0,.48611-.183.48611-.29289.28345-.44189-1.17557-4.41283-10.42355-4.59644-10.99149-.03619-.12079-.10994-.12079-.36751-.12079l-4.22432.49353c-.18364.04071-.25716.04071-.25716.16156V18.803c0,.16174,0,.2027.25716.16174l.69753-.08075a.23221.23221,0,0,1,.2578.24359V33.59628c0,.16214-.03645.24268-.29445.28363l-.66087.081c-.18364,0-.25716.08075-.25716.28342l-.018,2.4053c0,.20288.06627.25809.24026.22574l5.62241-.87872c.21806-.03647.2804-.0629.27467-.26669l.018-2.22961c0-.16241,0-.20312-.25711-.20312l-.69907.04071c-.1097.04028-.176-.00046-.176-.20312l-.007-7.07669c0-.64893.11014-.48651.29379-.16217l4.4343,9.566c.10991.20245.0735.24344.25668.24344l3.57829-.046c.11053,0,.18422,0,.18422-.20267V18.472c0-.20227.03641-.24316.257-.24316l.6619.04089c.18379,0,.257.04077.257-.20288V15.64056c0-.12195,0-.12195-.257-.12195m-1.63519,1.52057-1.02586.00818-.01079,17.493a.28529.28529,0,0,1-.54057.12833s-7.13025-14.2218-8.07809-16.11255c-.00218,1.92554-.01668,14.22684-.01906,16.15784l.782-.1058a.28655.28655,0,0,1,.07681.56793l-2.36177.32022a.28648.28648,0,0,1-.07678-.56778l1.00821-.13684L36.2714,17.655l-1.26358.134a.28656.28656,0,0,1-.06012-.56995l1.56088-.16522a.27494.27494,0,0,1,.1595.03564c.0092.00372.01712.009.02588.01343a.31675.31675,0,0,1,.0316.02191.27828.27828,0,0,1,.0869.09821s7.128,14.21872,8.07693,16.11121c.00134-1.95566.009-14.62048.01031-16.28192L43.9,17.0603a.28648.28648,0,0,1-.00479-.57294l2.597-.02118a.28651.28651,0,0,1,.00449.573Z" fill="#ffc121"/><path d="M17.00761,35.76077a8.11478,8.11478,0,0,0-2.46792-2.21707c-3.71637-2.04086-4.81279-2.59891-5.0833-4.2518a2.59352,2.59352,0,0,1,1.69228-2.7327c1.42378-.324,2.11885.08542,2.242.661.04516.20181.04516,1.92358.04516,1.92358s.04521.14191.16369.09457c.50028-.21408,2.5118-.92908,3.05772-1.16272a.2093.2093,0,0,0,.11736-.21481c-.02124-.85736.04081-6.32364.0169-7.26089-.002-.09088-.09961-.169-.24989-.1142-.73307.26843-1.51.56207-2.8289,1.09106-.07522.03107-.29638.17737-.2944.31976,0,0,.0564.69623-.06059.70813,0,0-.07724.05524-.61147-.07263-.01338-.00464-.04369-.01257-.04369-.01257a5.37679,5.37679,0,0,0-3.6051.52753,6.63734,6.63734,0,0,0-3.689,7.3515c.81708,4.875,6.04823,5.25656,7.85051,7.57907,1.38468,1.78516.55225,3.11432-.41031,3.64423-.909.50015-2.94011.64584-3.42524-1.09085a4.27866,4.27866,0,0,1-.02741-.58075s-.00569-.35229-.005-.8074a.15038.15038,0,0,0-.20915-.12653c-.56694.392-2.22,1.59387-2.70708,1.91476a.32228.32228,0,0,0-.183.27438c-.0009.13644-.00132,7.01837-.00132,7.01837s.0215.334.20932.20865c.55507-.36908,2.302-1.622,2.72245-1.96768a.36393.36393,0,0,0,.16806-.33438,3.67836,3.67836,0,0,1,.04388-.73868l.176.037a6.95961,6.95961,0,0,0,5.40738-.82263c2.79087-1.53647,3.90724-6.00919,1.99-8.84531m-.72913,4.27859a4.39444,4.39444,0,0,1-3.03158,3.87924,4.98377,4.98377,0,0,1-4.97006-1.06067l.01642,2.40314a.28568.28568,0,1,1-.57135.004l-.02367-3.46478a.28557.28557,0,1,1,.57113-.00351l.0013.18787c.00417.0058.01033.00909.01406.0148.05772.09222,1.44589,2.24258,4.81868,1.36459a3.80831,3.80831,0,0,0,2.60595-3.37357c.18471-2.17041-1.34938-4.15866-4.20963-5.45523-3.353-1.52-4.2333-3.51108-4.38119-4.91351A5.29993,5.29993,0,0,1,9.221,24.98883a4.18022,4.18022,0,0,1,4.44088-.53186,4.01311,4.01311,0,0,1,1.05907.72308l-.01668-1.51215a.28558.28558,0,1,1,.57113-.006l.03205,2.913a.28547.28547,0,1,1-.5709.00638l-.00375-.334a.15138.15138,0,0,0-.00614-.02136.5433.5433,0,0,0-.088-.24823,2.80187,2.80187,0,0,0-1.21989-1.0022,3.63165,3.63165,0,0,0-3.859.47473A4.70867,4.70867,0,0,0,7.6864,29.56146c.18958,1.79749,1.58961,3.337,4.04879,4.45184C16.1293,36.00528,16.37614,38.89111,16.27849,40.03937Z" fill="#ffc121"/><path d="M28.89986,21.76453a2.35077,2.35077,0,0,0-.73988-1.696,3.26089,3.26089,0,0,0-2.811-.37842c-3.87567.79572-3.58476,4.7724-3.56939,4.96777l-.06363,10.62363a2.60033,2.60033,0,0,0,.775,1.81946,2.972,2.972,0,0,0,2.501.46829c4.20325-.67844,3.92308-4.245,3.9077-4.4234l.00024-11.38129m-1.71712,11.806a2.55066,2.55066,0,0,1-1.87419,2.42264,1.42309,1.42309,0,0,1-1.87375-1.39624V23.55231a2.5083,2.5083,0,0,1,1.91064-2.42218,1.48048,1.48048,0,0,1,1.8373,1.60089Z" fill="#ffc121"/><path d="M25.45536,17.51715c-3.82149.862-6.10051,3.85944-6.10051,6.89734V35.8288c.04369,2.45935,2.641,4.88068,6.10051,3.818C30.23058,38.181,31.262,34.679,31.262,32.70789V21.82794c0-2.66913-1.98389-4.92719-5.80666-4.31079m-.37279,20.6174A3.4974,3.4974,0,0,1,22.112,37.5296a3.1424,3.1424,0,0,1-.96693-2.25983l-.00045.00467s.06363-10.62027.06493-10.59323c-.00434-.04687-.35409-4.6532,4.02491-5.5528a3.77468,3.77468,0,0,1,3.29791.5058,2.89451,2.89451,0,0,1,.93867,2.13849l-.0013,11.34537A4.7508,4.7508,0,0,1,25.08257,38.13455Z" fill="#ffc121"/><path d="M56.80442,16.05334l-5.88022-.45111c-.18423,0-.21976-.04156-.21976.08209v2.37775c0,.1228,0,.246.21976.246l.7347.04071c.14828.04089.222.08228.222.28693V33.10837c0,.20511,0,.28738-.25793.24625l-.69875-.04114c-.18423,0-.21976.04114-.21976.20468v2.12622c0,.20486.03552.28693.21976.28693l5.88022.83136c.14783,0,.22064,0,.22064-.28693V34.21484c-.00854-.15405-.00226-.14807-.24265-.19894l-.66777-.11548c-.17253-.03152-.22827-.054-.22827-.25861V18.9231c0-.16431,0-.20526.21973-.20526l.69832.08228c.18425,0,.25839.08209.25839-.20508V16.21686c0-.1228,0-.1228-.25839-.16351m-1.56734,1.62622-1.06451-.084L54.16,34.65784l.94409.1228a.28642.28642,0,0,1-.07324.56815l-2.489-.32367a.28649.28649,0,0,1,.07372-.56821l.97282.12631.01306-17.03281-1.1-.08716a.28628.28628,0,0,1,.04494-.5708l2.7352.21631a.28627.28627,0,0,1-.04448.5708Z" fill="#ffc121"/><path d="M70.84219,34.11163,67.27254,32.757c-.22064-.08188-.25706-.04138-.25706.12344L66.96784,34.482a1.44029,1.44029,0,0,1-1.94748,1.5213,2.659,2.659,0,0,1-1.8383-2.34384V22.72467A1.52735,1.52735,0,0,1,65.09318,21.122a2.51044,2.51044,0,0,1,1.87466,2.38434v.91406c0,.28717.03688.28717.25752.36969.25658.08234,3.53952,1.118,3.686,1.19983.18378.04132.22064-.04114.22064-.24664l.08537-6.30542c0-.16412-.03687-.16412-.2211-.20551l-3.51436-1.079c-.21976-.042-.25658-.042-.25658.1228v.54413c0,.12268,0,.2052-.22064-.12366a4.90377,4.90377,0,0,0-2.49887-1.27429c-3.82219-.61707-5.403,1.68542-5.403,3.86359V32.7554c0,1.89075,1.06587,5.75458,6.10086,6.98776,4.85075,1.56268,5.79982-1.885,5.86362-3.923l.07414-1.376c0-.20621-.08492-.25656-.29927-.33252m-2.93336,3.88669a3.54545,3.54545,0,0,1-3.16074.21829,5.584,5.584,0,0,1-3.94128-5.17776s.03909-10.88675.03955-10.89291A3.29579,3.29579,0,0,1,61.874,19.59167,3.12041,3.12041,0,0,1,64.1401,18.95a5.57051,5.57051,0,0,1,4.52364,3.04974l-.0054-1.27783a.28557.28557,0,1,1,.57114-.00238l.01213,2.80792-.00224.01184.00314.01544a.28568.28568,0,1,1-.56259.09967,5.18665,5.18665,0,0,0-4.609-4.1358,2.58239,2.58239,0,0,0-1.832.51392,2.75143,2.75143,0,0,0-.82141,2.12177l-.03908,10.88852A4.92522,4.92522,0,0,0,64.91927,37.67a3.01382,3.01382,0,0,0,2.661-.14038,2.78232,2.78232,0,0,0,.9886-2.26572.2856.2856,0,1,1,.57068.02441A3.32068,3.32068,0,0,1,67.90882,37.99832Z" fill="#ffc121"/><path d="M85.16709,24.36505c-.04314-.019-3.2587-1.65887-3.2587-1.65887-.11818-.05725-.12762.202-.129.24078l-.0274.20862a5.12194,5.12194,0,0,0-4.44051-2.32214c-4.88985.37811-6.729,7.6821-.30151,13.34048,5.46053,4.80719,4.023,7.99387,2.26744,7.99387a2.71125,2.71125,0,0,1-2.2504-1.46225,5.537,5.537,0,0,1-.64075-1.86081c-.018-.08545.04538-2.32916.04538-2.32916.00851-.14349-.05032-.20618-.12851-.23172,0,0-2.48807-1.00345-3.22321-1.3252-.08133-.03564-.17435-.01453-.17255.12323l-.11235,7.64841a.23184.23184,0,0,0,.14156.25c.59854.30237,2.61658,1.4566,3.22366,1.75262.12265.06036.1676.00674.17432-.12067l-.0184-.73016a.01931.01931,0,0,1,.018-.02c.01033,0,.01888.01563.02606.02423l.00584.009c.02245.02905.04988.06183.075.09268,1.47475,2.29568,6.34888,3.95694,8.10764-1.788,1.766-5.76843-4.54967-10.87756-6.31113-12.98422-1.761-2.10614-1.24336-5.23367,1.08247-4.40707a3.77664,3.77664,0,0,1,2.294,3.5l.00626-.00571c0,.02377,0,.04776-.00089.07153l.031,1.28247a.345.345,0,0,0,.12042.182s2.80035,1.39914,3.25017,1.67c.106.06448.15457-.01956.15546-.06183l.05618-6.9332a.1521.1521,0,0,0-.06561-.14893M83.6038,28.74527a.29122.29122,0,1,1-.58238.00641l.00224-.21368c-.057-.91745-.52483-4.52817-4.321-5.22995a2.81359,2.81359,0,0,0-3.08887,1.47638c-.69287,1.30322-.6893,3.66025,1.602,6.01382l.52617.53494c2.52585,2.5538,7.22652,7.30746,4.94333,11.28a3.05992,3.05992,0,0,1-3.20793,1.68192c-1.8176-.26273-3.6568-1.9-4.64447-3.98175l-.02336,1.52393a.2856.2856,0,1,1-.57114-.00879l.04718-3.1077a.29419.29419,0,0,1,.00136-.05991l.01257-.84961a.28581.28581,0,1,1,.57155.009l-.01344.87805c.6192,2.49237,2.71767,4.74292,4.70113,5.02966a2.49161,2.49161,0,0,0,2.63184-1.40112c2.06523-3.59311-2.43593-8.14529-4.85434-10.59058l-.52936-.53778c-2.506-2.57474-2.48041-5.21-1.69722-6.68365a3.36913,3.36913,0,0,1,3.69685-1.7702,5.46282,5.46282,0,0,1,4.24411,3.47913l.00722-.62915a.2858.2858,0,1,1,.57155.00665l-.03458,2.95911C83.60242,28.67245,83.6038,28.73981,83.6038,28.74527Z" fill="#ffc121"/></svg>